<svg width="188" height="188" viewBox="0 0 188 188" fill="none" xmlns="http://www.w3.org/2000/svg">
<rect width="188" height="188" rx="20" fill="#141414"/>
<mask id="path-2-outside-1" maskUnits="userSpaceOnUse" x="20" y="102" width="81" height="66" fill="black">
<rect fill="white" x="20" y="102" width="81" height="66"/>
<path fill-rule="evenodd" clip-rule="evenodd" d="M53 119C60.1797 119 66 113.18 66 106V106C66 105.46 66.423 105 66.9631 105H78C80.7614 105 83 107.239 83 110V127.999C83 130.209 84.7913 132 87.001 132V132C88.2593 132 89.3956 131.314 90.4822 130.679C91.2217 130.247 92.0819 130 93 130C95.7614 130 98 132.239 98 135C98 137.761 95.7614 140 93 140C92.0819 140 91.2217 139.753 90.4822 139.321C89.3956 138.686 88.2593 138 87.001 138V138C84.7913 138 83 139.791 83 142.001V160C83 162.761 80.7614 165 78 165H28C25.2386 165 23 162.761 23 160V110C23 107.239 25.2386 105 28 105H39.0369C39.577 105 40 105.46 40 106V106C40 113.18 45.8203 119 53 119Z"/>
</mask>
<path fill-rule="evenodd" clip-rule="evenodd" d="M53 119C60.1797 119 66 113.18 66 106V106C66 105.46 66.423 105 66.9631 105H78C80.7614 105 83 107.239 83 110V127.999C83 130.209 84.7913 132 87.001 132V132C88.2593 132 89.3956 131.314 90.4822 130.679C91.2217 130.247 92.0819 130 93 130C95.7614 130 98 132.239 98 135C98 137.761 95.7614 140 93 140C92.0819 140 91.2217 139.753 90.4822 139.321C89.3956 138.686 88.2593 138 87.001 138V138C84.7913 138 83 139.791 83 142.001V160C83 162.761 80.7614 165 78 165H28C25.2386 165 23 162.761 23 160V110C23 107.239 25.2386 105 28 105H39.0369C39.577 105 40 105.46 40 106V106C40 113.18 45.8203 119 53 119Z" fill="#EFEFEF"/>
<path d="M90.4822 130.679L88.9694 128.089L90.4822 130.679ZM90.4822 139.321L91.9951 136.73L90.4822 139.321ZM63 106C63 111.523 58.5228 116 53 116V122C61.8366 122 69 114.837 69 106H63ZM78 102H66.9631V108H78V102ZM86 127.999V110H80V127.999H86ZM93 127C91.5361 127 90.1555 127.396 88.9694 128.089L91.9951 133.27C92.2879 133.099 92.6278 133 93 133V127ZM101 135C101 130.582 97.4183 127 93 127V133C94.1046 133 95 133.895 95 135H101ZM93 143C97.4183 143 101 139.418 101 135H95C95 136.105 94.1046 137 93 137V143ZM88.9694 141.911C90.1555 142.604 91.5361 143 93 143V137C92.6278 137 92.2879 136.901 91.9951 136.73L88.9694 141.911ZM86 160V142.001H80V160H86ZM28 168H78V162H28V168ZM20 110V160H26V110H20ZM39.0369 102H28V108H39.0369V102ZM53 116C47.4772 116 43 111.523 43 106H37C37 114.837 44.1634 122 53 122V116ZM28 162C26.8954 162 26 161.105 26 160H20C20 164.418 23.5817 168 28 168V162ZM80 160C80 161.105 79.1046 162 78 162V168C82.4183 168 86 164.418 86 160H80ZM87.001 135C83.1344 135 80 138.134 80 142.001H86C86 141.448 86.4481 141 87.001 141V135ZM87.001 135C89.2304 135 91.1092 133.787 91.9951 133.27L88.9694 128.089C88.3778 128.434 87.9896 128.661 87.6102 128.826C87.2582 128.979 87.0801 129 87.001 129V135ZM91.9951 136.73C91.1092 136.213 89.2304 135 87.001 135V141C87.0801 141 87.2582 141.021 87.6102 141.174C87.9896 141.339 88.3778 141.566 88.9694 141.911L91.9951 136.73ZM80 127.999C80 131.866 83.1344 135 87.001 135V129C86.4481 129 86 128.552 86 127.999H80ZM39.0369 108C37.7753 108 37 106.968 37 106H43C43 103.952 41.3787 102 39.0369 102V108ZM78 108C79.1046 108 80 108.895 80 110H86C86 105.582 82.4183 102 78 102V108ZM26 110C26 108.895 26.8954 108 28 108V102C23.5817 102 20 105.582 20 110H26ZM69 106C69 106.968 68.2247 108 66.9631 108V102C64.6213 102 63 103.952 63 106H69Z" fill="#EFEFEF" mask="url(#path-2-outside-1)"/>
<mask id="path-4-outside-2" maskUnits="userSpaceOnUse" x="102" y="87" width="66" height="81" fill="black">
<rect fill="white" x="102" y="87" width="66" height="81"/>
<path fill-rule="evenodd" clip-rule="evenodd" d="M119 135C119 127.82 113.18 122 106 122V122C105.46 122 105 121.577 105 121.037L105 110C105 107.239 107.239 105 110 105L127.999 105C130.209 105 132 103.209 132 100.999V100.999C132 99.7407 131.314 98.6044 130.679 97.5178C130.247 96.7783 130 95.9181 130 95C130 92.2386 132.239 90 135 90C137.761 90 140 92.2386 140 95C140 95.9181 139.753 96.7783 139.321 97.5178C138.686 98.6044 138 99.7407 138 100.999V100.999C138 103.209 139.791 105 142.001 105L160 105C162.761 105 165 107.239 165 110L165 160C165 162.761 162.761 165 160 165L110 165C107.239 165 105 162.761 105 160L105 148.963C105 148.423 105.46 148 106 148V148C113.18 148 119 142.18 119 135Z"/>
</mask>
<path fill-rule="evenodd" clip-rule="evenodd" d="M119 135C119 127.82 113.18 122 106 122V122C105.46 122 105 121.577 105 121.037L105 110C105 107.239 107.239 105 110 105L127.999 105C130.209 105 132 103.209 132 100.999V100.999C132 99.7407 131.314 98.6044 130.679 97.5178C130.247 96.7783 130 95.9181 130 95C130 92.2386 132.239 90 135 90C137.761 90 140 92.2386 140 95C140 95.9181 139.753 96.7783 139.321 97.5178C138.686 98.6044 138 99.7407 138 100.999V100.999C138 103.209 139.791 105 142.001 105L160 105C162.761 105 165 107.239 165 110L165 160C165 162.761 162.761 165 160 165L110 165C107.239 165 105 162.761 105 160L105 148.963C105 148.423 105.46 148 106 148V148C113.18 148 119 142.18 119 135Z" fill="#EFEFEF"/>
<path d="M165 160L162 160L165 160ZM130.679 97.5178L128.089 99.0306L130.679 97.5178ZM139.321 97.5178L136.73 96.0049L139.321 97.5178ZM106 125C111.523 125 116 129.477 116 135L122 135C122 126.163 114.837 119 106 119L106 125ZM102 110L102 121.037L108 121.037L108 110L102 110ZM127.999 102L110 102L110 108L127.999 108L127.999 102ZM127 95C127 96.4639 127.396 97.8445 128.089 99.0306L133.27 96.0049C133.099 95.7121 133 95.3722 133 95L127 95ZM135 87C130.582 87 127 90.5817 127 95L133 95C133 93.8954 133.895 93 135 93L135 87ZM143 95C143 90.5817 139.418 87 135 87L135 93C136.105 93 137 93.8954 137 95L143 95ZM141.911 99.0306C142.604 97.8445 143 96.4639 143 95L137 95C137 95.3722 136.901 95.7121 136.73 96.0049L141.911 99.0306ZM160 102L142.001 102L142.001 108L160 108L160 102ZM168 160L168 110L162 110L162 160L168 160ZM110 168L160 168L160 162L110 162L110 168ZM102 148.963L102 160L108 160L108 148.963L102 148.963ZM116 135C116 140.523 111.523 145 106 145L106 151C114.837 151 122 143.837 122 135L116 135ZM162 160C162 161.105 161.105 162 160 162L160 168C164.418 168 168 164.418 168 160L162 160ZM160 108C161.105 108 162 108.895 162 110L168 110C168 105.582 164.418 102 160 102L160 108ZM135 100.999C135 104.866 138.134 108 142.001 108L142.001 102C141.448 102 141 101.552 141 100.999L135 100.999ZM135 100.999C135 98.7696 133.787 96.8908 133.27 96.0049L128.089 99.0306C128.434 99.6222 128.661 100.01 128.826 100.39C128.979 100.742 129 100.92 129 100.999L135 100.999ZM136.73 96.0049C136.213 96.8908 135 98.7696 135 100.999L141 100.999C141 100.92 141.021 100.742 141.174 100.39C141.339 100.01 141.566 99.6222 141.911 99.0306L136.73 96.0049ZM127.999 108C131.866 108 135 104.866 135 100.999L129 100.999C129 101.552 128.552 102 127.999 102L127.999 108ZM108 148.963C108 150.225 106.968 151 106 151L106 145C103.952 145 102 146.621 102 148.963L108 148.963ZM108 110C108 108.895 108.895 108 110 108L110 102C105.582 102 102 105.582 102 110L108 110ZM110 162C108.895 162 108 161.105 108 160L102 160C102 164.418 105.582 168 110 168L110 162ZM106 119C106.968 119 108 119.775 108 121.037L102 121.037C102 123.379 103.952 125 106 125L106 119Z" fill="#EFEFEF" mask="url(#path-4-outside-2)"/>
<mask id="path-6-outside-3" maskUnits="userSpaceOnUse" x="20" y="20" width="66" height="81" fill="black">
<rect fill="white" x="20" y="20" width="66" height="81"/>
<path fill-rule="evenodd" clip-rule="evenodd" d="M69 53C69 60.1797 74.8203 66 82 66V66C82.5401 66 83 66.423 83 66.9631L83 78C83 80.7614 80.7614 83 78 83L60.001 83C57.7913 83 56 84.7913 56 87.001V87.001C56 88.2593 56.6862 89.3956 57.3208 90.4822C57.7526 91.2217 58 92.0819 58 93C58 95.7614 55.7614 98 53 98C50.2386 98 48 95.7614 48 93C48 92.0819 48.2474 91.2217 48.6792 90.4822C49.3138 89.3956 50 88.2593 50 87.001V87.001C50 84.7913 48.2087 83 45.999 83L28 83C25.2386 83 23 80.7614 23 78L23 28C23 25.2386 25.2386 23 28 23L78 23C80.7614 23 83 25.2386 83 28L83 39.0369C83 39.577 82.5401 40 82 40V40C74.8203 40 69 45.8203 69 53Z"/>
</mask>
<path fill-rule="evenodd" clip-rule="evenodd" d="M69 53C69 60.1797 74.8203 66 82 66V66C82.5401 66 83 66.423 83 66.9631L83 78C83 80.7614 80.7614 83 78 83L60.001 83C57.7913 83 56 84.7913 56 87.001V87.001C56 88.2593 56.6862 89.3956 57.3208 90.4822C57.7526 91.2217 58 92.0819 58 93C58 95.7614 55.7614 98 53 98C50.2386 98 48 95.7614 48 93C48 92.0819 48.2474 91.2217 48.6792 90.4822C49.3138 89.3956 50 88.2593 50 87.001V87.001C50 84.7913 48.2087 83 45.999 83L28 83C25.2386 83 23 80.7614 23 78L23 28C23 25.2386 25.2386 23 28 23L78 23C80.7614 23 83 25.2386 83 28L83 39.0369C83 39.577 82.5401 40 82 40V40C74.8203 40 69 45.8203 69 53Z" fill="#EFEFEF"/>
<path d="M57.3208 90.4822L54.7301 91.9951L57.3208 90.4822ZM48.6792 90.4822L51.2698 91.9951L48.6792 90.4822ZM82 63C76.4772 63 72 58.5228 72 53L66 53C66 61.8366 73.1634 69 82 69L82 63ZM86 78L86 66.9631L80 66.9631L80 78L86 78ZM60.001 86L78 86L78 80L60.001 80L60.001 86ZM61 93C61 91.536 60.604 90.1555 59.9114 88.9694L54.7301 91.9951C54.9011 92.2879 55 92.6278 55 93L61 93ZM53 101C57.4183 101 61 97.4183 61 93L55 93C55 94.1046 54.1046 95 53 95L53 101ZM45 93C45 97.4183 48.5817 101 53 101L53 95C51.8954 95 51 94.1046 51 93L45 93ZM46.0886 88.9694C45.396 90.1555 45 91.536 45 93L51 93C51 92.6278 51.0989 92.2879 51.2698 91.9951L46.0886 88.9694ZM28 86L45.999 86L45.999 80L28 80L28 86ZM20 28L20 78L26 78L26 28L20 28ZM78 20L28 20L28 26L78 26L78 20ZM86 39.0369L86 28L80 28L80 39.0369L86 39.0369ZM72 53C72 47.4772 76.4772 43 82 43L82 37C73.1634 37 66 44.1634 66 53L72 53ZM26 28C26 26.8954 26.8954 26 28 26L28 20C23.5817 20 20 23.5817 20 28L26 28ZM28 80C26.8954 80 26 79.1046 26 78L20 78C20 82.4183 23.5817 86 28 86L28 80ZM53 87.001C53 83.1344 49.8656 80 45.999 80L45.999 86C46.5519 86 47 86.4481 47 87.001L53 87.001ZM53 87.001C53 89.2303 54.2128 91.1092 54.7301 91.9951L59.9114 88.9694C59.5659 88.3778 59.3387 87.9896 59.1738 87.6102C59.0208 87.2582 59 87.0801 59 87.001L53 87.001ZM51.2698 91.9951C51.7872 91.1092 53 89.2303 53 87.001L47 87.001C47 87.0801 46.9792 87.2582 46.8262 87.6102C46.6613 87.9896 46.4341 88.3778 46.0886 88.9694L51.2698 91.9951ZM60.001 80C56.1344 80 53 83.1344 53 87.001L59 87.001C59 86.4481 59.4481 86 60.001 86L60.001 80ZM80 39.0369C80 37.7753 81.0319 37 82 37L82 43C84.0483 43 86 41.3787 86 39.0369L80 39.0369ZM80 78C80 79.1046 79.1046 80 78 80L78 86C82.4183 86 86 82.4183 86 78L80 78ZM78 26C79.1046 26 80 26.8954 80 28L86 28C86 23.5817 82.4183 20 78 20L78 26ZM82 69C81.0319 69 80 68.2247 80 66.9631L86 66.9631C86 64.6213 84.0483 63 82 63L82 69Z" fill="#EFEFEF" mask="url(#path-6-outside-3)"/>
<path d="M132.047 53.8965C132.047 52.1855 132.24 50.8379 132.627 49.8535C133.014 48.8574 133.641 47.9961 134.508 47.2695C135.375 46.543 136.031 45.8809 136.477 45.2832C136.934 44.6738 137.162 44.0059 137.162 43.2793C137.162 41.5098 136.4 40.625 134.877 40.625C134.174 40.625 133.605 40.8828 133.172 41.3984C132.738 41.9141 132.51 42.6113 132.486 43.4902H126.545C126.568 41.1465 127.307 39.3242 128.76 38.0234C130.213 36.7109 132.252 36.0547 134.877 36.0547C137.49 36.0547 139.512 36.6582 140.941 37.8652C142.383 39.0723 143.104 40.7891 143.104 43.0156C143.104 43.9883 142.91 44.873 142.523 45.6699C142.137 46.4668 141.516 47.2812 140.66 48.1133L138.639 49.9941C138.064 50.5449 137.666 51.1133 137.443 51.6992C137.221 52.2734 137.098 53.0059 137.074 53.8965H132.047ZM131.326 59.2402C131.326 58.373 131.637 57.6641 132.258 57.1133C132.891 56.5508 133.676 56.2695 134.613 56.2695C135.551 56.2695 136.33 56.5508 136.951 57.1133C137.584 57.6641 137.9 58.373 137.9 59.2402C137.9 60.1074 137.584 60.8223 136.951 61.3848C136.33 61.9355 135.551 62.2109 134.613 62.2109C133.676 62.2109 132.891 61.9355 132.258 61.3848C131.637 60.8223 131.326 60.1074 131.326 59.2402Z" fill="#EFEFEF"/>
</svg>
