<svg width="154" height="139" viewBox="0 0 154 139" fill="none" xmlns="http://www.w3.org/2000/svg">
<path d="M52.16 3.192V45.816C47.264 40.632 40.496 37.752 32.576 37.752C14.864 37.752 0.176 52.872 0.176 72.168C0.176 91.608 14.864 106.728 32.576 106.728C41.36 106.728 48.704 103.128 53.744 96.936V105H71.744V0.743995L52.16 3.192ZM36.32 90.024C26.384 90.024 18.896 82.248 18.896 72.168C18.896 62.232 26.384 54.456 36.32 54.456C46.112 54.456 53.744 62.232 53.744 72.168C53.744 82.248 46.112 90.024 36.32 90.024ZM153.239 35.88L117.959 37.32C96.359 38.328 84.839 52.008 84.839 67.128C84.839 77.784 90.599 86.712 99.671 91.752L103.559 103.272C107.159 99.528 111.623 97.08 116.951 97.08C125.303 97.08 131.063 102.552 131.063 110.184C131.063 117.672 125.447 123.288 117.239 123.288C109.463 123.288 103.703 118.104 102.119 109.896L88.295 118.248C92.039 130.488 102.839 138.552 117.383 138.552C135.671 138.552 147.911 125.736 147.911 110.616C147.911 101.832 143.879 94.632 137.399 90.024C144.887 84.84 149.495 76.632 149.495 67.272C149.495 60.072 146.759 53.736 142.007 48.984L151.079 49.56L153.239 35.88ZM117.239 52.728C125.591 52.728 131.927 59.064 131.927 67.128C131.927 75.336 125.591 81.384 117.239 81.384C108.887 81.384 102.695 75.336 102.695 67.128C102.695 59.064 108.887 52.728 117.239 52.728Z" fill="#141414"/>
</svg>
