<svg width="999" height="779" viewBox="0 0 999 779" fill="none" xmlns="http://www.w3.org/2000/svg">
<g clip-path="url(#clip0)" filter="url(#filter0_d)">
<path d="M293.581 0L135.727 85.5022C138.427 90.1493 140.166 95.2908 140.842 100.622C141.517 105.954 141.116 111.367 139.661 116.54C138.207 121.714 135.729 126.543 132.374 130.741C129.019 134.939 124.855 138.421 120.13 140.981C115.404 143.54 110.213 145.125 104.864 145.642C99.5146 146.158 94.1161 145.596 88.9882 143.988C83.8603 142.38 79.1074 139.758 75.0111 136.28C70.9148 132.801 67.5584 128.536 65.1408 123.736L11.3174 152.89L150.737 410.284L433 257.394L293.581 0Z" fill="white"/>
<path d="M98.604 138.255C116.602 138.255 131.191 123.665 131.191 105.668C131.191 87.6704 116.602 73.0806 98.604 73.0806C80.6065 73.0806 66.0166 87.6704 66.0166 105.668C66.0166 123.665 80.6065 138.255 98.604 138.255Z" fill="#FFFCC0"/>
<path d="M689.955 689.064L860.627 633.393C858.809 628.336 858.024 622.965 858.32 617.599C858.616 612.233 859.985 606.981 862.348 602.154C864.71 597.327 868.018 593.024 872.074 589.499C876.131 585.973 880.853 583.298 885.962 581.632C891.072 579.965 896.463 579.341 901.818 579.796C907.173 580.252 912.382 581.778 917.136 584.283C921.89 586.788 926.093 590.223 929.496 594.382C932.899 598.542 935.432 603.342 936.946 608.499L995.14 589.516L904.363 311.22L599.178 410.767L689.955 689.064Z" fill="white"/>
<path d="M900.776 652.831C918.773 652.831 933.363 638.241 933.363 620.244C933.363 602.246 918.773 587.656 900.776 587.656C882.778 587.656 868.188 602.246 868.188 620.244C868.188 638.241 882.778 652.831 900.776 652.831Z" fill="#FFFCC0"/>
<path d="M907.5 152.678H119.5V510.678H907.5V152.678Z" fill="#3F3D56"/>
<path d="M894.5 165.678H132.5V490.678H894.5V165.678Z" fill="#EFEFEF"/>
<path d="M817 475.178H743V500.178H817V475.178Z" fill="#3F3D56"/>
<path d="M739 494.178H685V501.178H739V494.178Z" fill="#FFFCC0"/>
<path d="M194.5 288.678H485.5L530.616 310.657L602.5 345.678L649.5 257.678H782.5" stroke="#3F3D56" stroke-width="2" stroke-miterlimit="10"/>
<path d="M308.925 288.678L330.5 339.678H383.5" stroke="#3F3D56" stroke-width="2" stroke-miterlimit="10"/>
<path d="M389.807 288.678L463.5 248.678H515.5" stroke="#3F3D56" stroke-width="2" stroke-miterlimit="10"/>
<path d="M308.5 297.678C313.471 297.678 317.5 293.648 317.5 288.678C317.5 283.707 313.471 279.678 308.5 279.678C303.529 279.678 299.5 283.707 299.5 288.678C299.5 293.648 303.529 297.678 308.5 297.678Z" fill="#FFFCC0"/>
<path d="M392.5 297.678C397.471 297.678 401.5 293.648 401.5 288.678C401.5 283.707 397.471 279.678 392.5 279.678C387.529 279.678 383.5 283.707 383.5 288.678C383.5 293.648 387.529 297.678 392.5 297.678Z" fill="#FFFCC0"/>
<path d="M530.5 310.678L536.5 399.678H588.5" stroke="#3F3D56" stroke-width="2" stroke-miterlimit="10"/>
<path d="M630.65 292.971L573.5 248.678H627.5" stroke="#3F3D56" stroke-width="2" stroke-miterlimit="10"/>
<path d="M725.051 257.678L780.5 301.678H832.5" stroke="#3F3D56" stroke-width="2" stroke-miterlimit="10"/>
<path d="M530.5 319.678C535.471 319.678 539.5 315.648 539.5 310.678C539.5 305.707 535.471 301.678 530.5 301.678C525.529 301.678 521.5 305.707 521.5 310.678C521.5 315.648 525.529 319.678 530.5 319.678Z" fill="#FFFCC0"/>
<path d="M724.5 266.678C729.471 266.678 733.5 262.648 733.5 257.678C733.5 252.707 729.471 248.678 724.5 248.678C719.529 248.678 715.5 252.707 715.5 257.678C715.5 262.648 719.529 266.678 724.5 266.678Z" fill="#FFFCC0"/>
<path d="M630.5 301.678C635.471 301.678 639.5 297.648 639.5 292.678C639.5 287.707 635.471 283.678 630.5 283.678C625.529 283.678 621.5 287.707 621.5 292.678C621.5 297.648 625.529 301.678 630.5 301.678Z" fill="#FFFCC0"/>
<path d="M331.5 347.678H383.5" stroke="#3F3D56" stroke-width="2" stroke-miterlimit="10"/>
<path d="M156 770.178C239.947 770.178 308 757.642 308 742.178C308 726.714 239.947 714.178 156 714.178C72.0527 714.178 4 726.714 4 742.178C4 757.642 72.0527 770.178 156 770.178Z" fill="#F2F2F2"/>
<path d="M260.389 493.658L233.272 507.339L235.027 510.834L262.143 497.153L260.389 493.658Z" fill="#FFFCC0"/>
<path d="M255.98 468.211L254.762 475.521C254.762 475.521 256.589 526.078 243.189 510.24C229.788 494.403 238.925 473.084 238.925 473.084L242.58 466.993L255.98 468.211Z" fill="#FBBEBE"/>
<path d="M178.013 234.31C178.013 234.31 175.577 259.893 174.359 261.111C173.14 262.33 192.632 285.476 192.632 285.476L209.687 269.639C209.687 269.639 208.469 246.493 212.124 241.62C215.778 236.747 178.013 234.31 178.013 234.31Z" fill="#FBBEBE"/>
<path opacity="0.1" d="M178.013 234.31C178.013 234.31 175.577 259.893 174.359 261.111C173.14 262.33 192.632 285.476 192.632 285.476L209.687 269.639C209.687 269.639 208.469 246.493 212.124 241.62C215.778 236.747 178.013 234.31 178.013 234.31Z" fill="#141414"/>
<path d="M132.939 700.894V722.822L124.411 724.041L112.229 720.386L115.883 697.239L132.939 700.894Z" fill="#3F3D56"/>
<path d="M121.975 711.858C121.975 711.858 118.32 702.112 112.229 703.33C106.138 704.549 104.919 711.858 104.919 711.858C104.919 711.858 100.046 730.132 92.7371 736.223C85.4276 742.314 78.1182 758.151 92.7371 760.588C107.356 763.024 119.538 756.933 119.538 755.715C119.538 754.496 123.193 747.187 129.284 745.969C135.375 744.75 140.248 743.532 140.248 738.659C140.248 733.786 136.593 728.913 136.593 728.913C136.593 728.913 135.375 705.805 132.939 708.832C131.254 711.223 130.016 713.899 129.284 716.731L121.975 711.858Z" fill="#2F2E41"/>
<path d="M185.323 689.93L180.45 708.203L192.632 710.64L198.723 704.549L199.941 688.712L185.323 689.93Z" fill="#3F3D56"/>
<path d="M184.105 705.767C184.105 705.767 188.978 702.112 191.414 702.112H195.069C195.069 702.112 195.069 693.585 201.16 693.585C207.251 693.585 206.033 699.676 206.033 699.676C206.033 699.676 219.434 720.386 223.088 724.041C226.743 727.695 246.235 738.659 230.398 743.532C214.561 748.405 203.596 748.405 196.287 739.878C196.287 739.878 188.978 736.223 184.105 736.223C179.232 736.223 173.141 733.786 173.141 730.132C173.141 726.477 176.795 719.168 176.795 719.168C176.795 719.168 179.232 697.239 180.45 699.676C181.668 702.112 184.105 705.767 184.105 705.767Z" fill="#2F2E41"/>
<path d="M131.72 409.736V449.938C131.72 449.938 118.32 527.905 118.32 553.488C118.32 579.071 97.6099 700.894 107.356 703.331C117.102 705.767 140.248 709.422 141.466 705.767C142.685 702.112 151.212 586.38 152.43 585.162C153.649 583.944 179.232 487.703 179.232 487.703L184.105 488.921L186.541 598.562C186.541 598.562 174.359 697.239 180.45 697.239C186.541 697.239 212.124 696.021 212.124 688.712C212.124 681.402 225.525 546.178 225.525 546.178C225.525 546.178 241.362 438.974 235.27 428.01C229.179 417.046 229.179 410.954 229.179 410.954L131.72 409.736Z" fill="#2F2E41"/>
<path d="M198.114 253.193C211.57 253.193 222.478 242.285 222.478 228.828C222.478 215.372 211.57 204.464 198.114 204.464C184.657 204.464 173.749 215.372 173.749 228.828C173.749 242.285 184.657 253.193 198.114 253.193Z" fill="#FBBEBE"/>
<path d="M192.632 270.857C192.632 270.857 177.404 258.066 176.186 253.193C176.186 253.193 168.267 261.112 168.267 262.33C168.267 263.548 134.157 267.203 125.629 276.949C117.101 286.694 109.792 307.404 109.792 307.404L130.502 346.388C130.502 346.388 131.72 368.316 131.72 370.753C131.72 373.189 125.629 412.173 128.066 413.391C130.502 414.609 154.867 426.791 175.577 424.355C196.287 421.918 216.997 418.264 223.088 418.264C229.179 418.264 234.052 420.7 234.052 418.264C234.052 415.827 230.397 410.954 230.397 408.518C230.397 406.081 229.179 399.99 229.179 396.336C229.179 392.681 226.743 386.59 226.743 381.717C226.743 376.844 253.544 311.059 253.544 311.059C253.544 311.059 252.325 290.349 232.834 280.603C213.342 270.857 210.905 267.203 210.905 267.203C210.905 267.203 210.526 259.893 209.497 259.893C208.469 259.893 204.814 270.857 195.068 272.076L192.632 270.857Z" fill="#D0CDE1"/>
<path d="M126.847 432.883L135.375 446.283L157.303 441.41L141.466 423.137L126.847 432.883Z" fill="#FBBEBE"/>
<path d="M246.235 301.313L253.544 311.059C253.544 311.059 268.163 381.717 265.726 407.3C263.29 432.883 260.854 452.374 260.854 452.374C260.854 452.374 265.726 470.648 262.072 470.648C258.417 470.648 236.489 471.866 236.489 468.211C236.489 464.557 238.925 441.41 238.925 441.41L232.834 387.808L219.434 369.534L246.235 301.313Z" fill="#D0CDE1"/>
<path d="M181.565 217C183.059 216.367 184.785 216.88 186.385 216.61C188.263 216.293 189.944 214.901 191.84 215.077C192.739 215.244 193.612 215.527 194.438 215.92C194.852 216.115 195.301 216.224 195.758 216.24C196.216 216.256 196.671 216.18 197.098 216.016C197.302 215.921 197.482 215.783 197.625 215.61C197.768 215.437 197.872 215.235 197.927 215.017C197.982 214.8 197.989 214.573 197.945 214.353C197.902 214.133 197.811 213.925 197.677 213.745C199.282 213.603 200.799 212.95 202.004 211.882C202.245 211.632 202.524 211.423 202.83 211.262C203.188 211.169 203.561 211.15 203.926 211.207C204.291 211.264 204.64 211.395 204.953 211.593L207.74 212.878C208.368 213.1 208.921 213.495 209.333 214.017C209.665 214.534 209.73 215.23 210.199 215.625C210.799 216.13 211.694 215.883 212.477 215.933C213.187 216.002 213.847 216.329 214.331 216.853C214.816 217.376 215.092 218.059 215.106 218.773C215.095 219.591 214.798 220.594 215.445 221.095C215.82 221.385 216.353 221.339 216.792 221.517C217.932 221.98 217.936 223.566 217.768 224.784C217.6 226.003 217.683 227.61 218.854 227.985C219.679 228.249 220.522 227.686 221.378 227.56C222.671 227.371 223.867 228.179 225.017 228.798C226.168 229.416 227.697 229.834 228.694 228.99C229.622 228.205 229.562 226.768 229.307 225.58C228.941 223.876 228.339 222.231 227.52 220.693C227.216 220.24 227.038 219.716 227.001 219.172C227.071 218.789 227.221 218.426 227.441 218.105C227.661 217.785 227.947 217.514 228.279 217.312C229.689 216.198 231.311 215.075 231.767 213.337C232.102 212.062 231.725 210.716 231.755 209.397C231.79 207.793 232.428 206.195 232.129 204.619C231.586 201.76 228.405 200.385 226.352 198.324C223.531 195.492 222.615 190.963 219.285 188.751C216.621 186.982 213.136 187.193 210.103 186.181C206.77 185.069 204.088 182.514 200.801 181.274C199.007 180.612 197.088 180.356 195.183 180.523C193.278 180.69 191.434 181.277 189.782 182.241C188.801 182.968 187.706 183.527 186.542 183.896C185.562 184.009 184.571 183.998 183.594 183.861C181.651 183.761 179.715 184.161 177.97 185.022C177.303 185.289 176.747 185.776 176.395 186.403C175.807 187.71 176.662 189.754 175.371 190.379C174.77 190.67 174.06 190.391 173.392 190.406C172.092 190.434 171.093 191.565 170.475 192.708C169.992 193.917 169.3 195.03 168.43 195.998C166.842 197.389 163.957 197.619 163.542 199.689C163.534 200.565 163.584 201.441 163.691 202.311C163.571 204.146 161.607 205.54 161.71 207.375C161.828 209.493 164.518 210.527 165.237 212.522C165.785 214.041 165.064 215.683 164.568 217.22C164.073 218.757 163.923 220.726 165.203 221.71C165.706 222.096 166.351 222.254 166.863 222.626C168.188 223.59 168.171 225.534 168.024 227.166C167.939 227.505 167.939 227.859 168.023 228.198C168.107 228.537 168.272 228.85 168.505 229.11C168.724 229.242 168.969 229.327 169.223 229.357C169.477 229.388 169.734 229.364 169.978 229.287C170.773 229.094 171.521 228.741 172.175 228.248C172.829 227.756 173.376 227.135 173.782 226.424C174.208 225.719 174.294 225.097 175.069 224.723C175.595 224.469 176.234 224.696 176.769 224.366C179.316 222.798 178.439 218.324 181.565 217Z" fill="#2F2E41"/>
<path d="M113.447 303.75L109.792 307.404C109.792 307.404 87.864 373.189 95.1733 387.808C102.483 402.427 117.102 438.974 121.974 437.756C126.847 436.537 143.903 425.573 143.903 424.355C143.903 423.137 123.193 389.026 123.193 389.026C123.193 389.026 120.756 381.717 121.974 380.499C123.193 379.28 123.193 380.499 121.974 378.062C120.756 375.626 120.756 378.062 123.193 375.626C125.629 373.189 125.629 373.189 125.629 371.971C125.629 370.753 132.939 340.297 132.939 340.297L113.447 303.75Z" fill="#D0CDE1"/>
<path d="M132.329 446.892L159.131 438.365L162.785 446.892L133.548 452.983L132.329 446.892Z" fill="#2F2E41"/>
<path opacity="0.1" d="M132.329 446.892L159.131 438.365L162.785 446.892L133.548 452.983L132.329 446.892Z" fill="#141414"/>
<path opacity="0.1" d="M168.876 262.939L189.586 279.994L192.023 276.339L168.876 262.939Z" fill="#141414"/>
<path opacity="0.1" d="M210.296 267.812L195.678 276.339L196.896 279.994L210.296 267.812Z" fill="#141414"/>
<rect width="66.0126" height="31.9764" transform="matrix(0.99931 0.0371492 -0.0364643 0.999335 152.166 305)" fill="#EFEFEF"/>
<path d="M168.308 314.248L167.821 327.595L164.565 327.474L164.6 326.503C163.937 327.235 162.97 327.577 161.699 327.53C160.811 327.497 160.009 327.263 159.293 326.828C158.577 326.381 158.017 325.766 157.613 324.982C157.221 324.199 157.044 323.304 157.081 322.297C157.117 321.289 157.359 320.416 157.807 319.676C158.266 318.924 158.869 318.358 159.616 317.978C160.362 317.597 161.179 317.424 162.066 317.457C163.23 317.5 164.117 317.869 164.728 318.564L164.89 314.121L168.308 314.248ZM162.517 324.84C163.105 324.862 163.598 324.676 163.997 324.283C164.396 323.877 164.609 323.309 164.635 322.577C164.662 321.858 164.49 321.287 164.122 320.865C163.765 320.444 163.286 320.222 162.687 320.199C162.087 320.177 161.588 320.363 161.19 320.756C160.791 321.15 160.578 321.706 160.552 322.426C160.526 323.157 160.696 323.74 161.065 324.174C161.434 324.596 161.918 324.818 162.517 324.84ZM180.682 318.311L180.326 328.06L177.071 327.939L177.106 326.968C176.443 327.7 175.47 328.042 174.187 327.994C173.299 327.961 172.497 327.727 171.781 327.292C171.076 326.846 170.522 326.231 170.119 325.447C169.727 324.664 169.55 323.769 169.586 322.762C169.623 321.754 169.865 320.881 170.312 320.141C170.772 319.389 171.369 318.823 172.104 318.442C172.85 318.061 173.667 317.888 174.554 317.921C175.705 317.963 176.599 318.333 177.234 319.029L177.264 318.184L180.682 318.311ZM175.005 325.305C175.605 325.327 176.104 325.141 176.503 324.748C176.902 324.342 177.114 323.774 177.141 323.042C177.167 322.323 176.996 321.752 176.627 321.33C176.258 320.908 175.774 320.686 175.175 320.664C174.575 320.641 174.076 320.827 173.677 321.22C173.279 321.614 173.066 322.17 173.04 322.89C173.013 323.621 173.184 324.204 173.553 324.638C173.921 325.06 174.406 325.282 175.005 325.305ZM189.238 318.466C190.449 318.512 191.407 318.907 192.112 319.654C192.83 320.401 193.162 321.5 193.109 322.951L192.905 328.528L189.488 328.401L189.671 323.382C189.719 322.051 189.21 321.365 188.143 321.326C187.555 321.304 187.074 321.478 186.701 321.849C186.339 322.219 186.144 322.789 186.116 323.556L185.944 328.269L182.526 328.142L182.882 318.392L186.138 318.513L186.099 319.575C186.497 319.193 186.964 318.91 187.499 318.726C188.035 318.53 188.614 318.443 189.238 318.466ZM206.034 319.253L205.743 327.222C205.677 329.032 205.136 330.369 204.12 331.232C203.103 332.107 201.672 332.51 199.825 332.441C198.866 332.406 197.97 332.264 197.139 332.017C196.307 331.77 195.605 331.426 195.033 330.984L196.361 328.638C196.745 328.977 197.234 329.247 197.827 329.449C198.431 329.664 199.027 329.782 199.615 329.804C200.514 329.837 201.181 329.664 201.615 329.284C202.049 328.904 202.281 328.324 202.309 327.544L202.321 327.221C201.633 327.963 200.654 328.311 199.383 328.264C198.52 328.232 197.729 328.01 197.012 327.6C196.295 327.177 195.733 326.603 195.327 325.88C194.922 325.144 194.736 324.309 194.77 323.373C194.804 322.45 195.05 321.643 195.507 320.951C195.965 320.248 196.567 319.718 197.312 319.361C198.058 318.992 198.863 318.824 199.726 318.856C201.117 318.908 202.12 319.396 202.735 320.319L202.778 319.132L206.034 319.253ZM200.292 325.578C200.903 325.601 201.414 325.434 201.823 325.077C202.244 324.72 202.465 324.248 202.487 323.66C202.508 323.073 202.328 322.592 201.945 322.217C201.563 321.831 201.06 321.626 200.437 321.603C199.813 321.579 199.291 321.746 198.869 322.103C198.46 322.448 198.245 322.914 198.224 323.502C198.202 324.089 198.389 324.577 198.783 324.964C199.177 325.35 199.68 325.555 200.292 325.578ZM209.307 329.299C208.732 329.278 208.253 329.068 207.871 328.67C207.489 328.271 207.309 327.778 207.331 327.191C207.353 326.591 207.562 326.112 207.96 325.755C208.369 325.398 208.867 325.23 209.455 325.252C210.054 325.274 210.539 325.479 210.91 325.865C211.28 326.251 211.454 326.743 211.432 327.343C211.411 327.931 211.195 328.409 210.785 328.778C210.387 329.147 209.895 329.321 209.307 329.299Z" fill="#141414"/>
<path d="M194.529 225.728C194.453 228.883 191.916 231.354 188.894 231.281C185.871 231.208 183.456 228.617 183.533 225.462C183.552 224.673 183.721 224.105 183.978 223.688C184.234 223.276 184.599 222.977 185.074 222.761C186.055 222.315 187.447 222.244 189.111 222.284C190.775 222.324 192.163 222.463 193.121 222.956C193.584 223.194 193.934 223.51 194.17 223.935C194.407 224.363 194.549 224.939 194.529 225.728Z" fill="white" fill-opacity="0.4" stroke="#EFEFEF"/>
<path d="M212.525 226.163C212.448 229.318 209.911 231.789 206.889 231.716C203.866 231.643 201.452 229.052 201.528 225.897C201.547 225.108 201.716 224.54 201.974 224.123C202.229 223.711 202.594 223.412 203.069 223.196C204.05 222.75 205.442 222.679 207.106 222.719C208.771 222.759 210.158 222.898 211.116 223.391C211.579 223.629 211.93 223.945 212.165 224.37C212.403 224.798 212.544 225.374 212.525 226.163Z" fill="white" fill-opacity="0.4" stroke="#EFEFEF"/>
<path d="M194.537 225.416L196.374 224.553C196.494 224.496 196.631 224.49 196.756 224.535L197.892 224.944C197.993 224.981 198.104 224.983 198.208 224.952L199.362 224.598C199.489 224.559 199.626 224.572 199.743 224.634L201.535 225.585" stroke="#EFEFEF"/>
</g>
<defs>
<filter id="filter0_d" x="0" y="0" width="999" height="786" filterUnits="userSpaceOnUse" color-interpolation-filters="sRGB">
<feFlood flood-opacity="0" result="BackgroundImageFix"/>
<feColorMatrix in="SourceAlpha" type="matrix" values="0 0 0 0 0 0 0 0 0 0 0 0 0 0 0 0 0 0 127 0"/>
<feOffset dy="4"/>
<feGaussianBlur stdDeviation="2"/>
<feColorMatrix type="matrix" values="0 0 0 0 0 0 0 0 0 0 0 0 0 0 0 0 0 0 0.25 0"/>
<feBlend mode="normal" in2="BackgroundImageFix" result="effect1_dropShadow"/>
<feBlend mode="normal" in="SourceGraphic" in2="effect1_dropShadow" result="shape"/>
</filter>
<clipPath id="clip0">
<rect width="991" height="778" fill="white" transform="translate(4)"/>
</clipPath>
</defs>
</svg>
