<svg width="991" height="778" viewBox="0 0 991 778" fill="none" xmlns="http://www.w3.org/2000/svg">
<g clip-path="url(#clip0)">
<path d="M289.58 0L131.726 85.5022C134.426 90.1493 136.165 95.2908 136.841 100.622C137.516 105.954 137.115 111.367 135.66 116.54C134.206 121.714 131.728 126.543 128.373 130.741C125.018 134.939 120.854 138.421 116.129 140.981C111.403 143.54 106.212 145.125 100.863 145.642C95.5136 146.158 90.1151 145.596 84.9872 143.988C79.8594 142.38 75.1064 139.758 71.0101 136.28C66.9138 132.801 63.5574 128.536 61.1398 123.736L7.31641 152.89L146.736 410.284L428.999 257.394L289.58 0Z" fill="white"/>
<path d="M94.603 138.255C112.601 138.255 127.19 123.665 127.19 105.668C127.19 87.6704 112.601 73.0806 94.603 73.0806C76.6055 73.0806 62.0156 87.6704 62.0156 105.668C62.0156 123.665 76.6055 138.255 94.603 138.255Z" fill="#FFFCC0"/>
<path d="M685.955 689.064L856.627 633.393C854.809 628.336 854.024 622.965 854.32 617.599C854.616 612.233 855.985 606.981 858.348 602.154C860.71 597.327 864.018 593.024 868.074 589.499C872.131 585.973 876.853 583.298 881.962 581.632C887.072 579.965 892.463 579.341 897.818 579.796C903.173 580.252 908.382 581.778 913.136 584.283C917.89 586.788 922.093 590.223 925.496 594.382C928.899 598.542 931.432 603.342 932.946 608.499L991.14 589.516L900.363 311.22L595.178 410.767L685.955 689.064Z" fill="white"/>
<path d="M896.775 652.831C914.772 652.831 929.362 638.241 929.362 620.244C929.362 602.246 914.772 587.656 896.775 587.656C878.777 587.656 864.188 602.246 864.188 620.244C864.188 638.241 878.777 652.831 896.775 652.831Z" fill="#FFFCC0"/>
<g filter="url(#filter0_d)">
<path d="M903.5 152.678H115.5V510.678H903.5V152.678Z" fill="#3F3D56"/>
</g>
<path d="M890.5 165.678H128.5V490.678H890.5V165.678Z" fill="#EFEFEF"/>
<path d="M813 475.178H739V500.178H813V475.178Z" fill="#3F3D56"/>
<path d="M735 494.178H681V501.178H735V494.178Z" fill="#FFFCC0"/>
<g filter="url(#filter1_i)">
<path d="M152 770.178C235.947 770.178 304 757.642 304 742.178C304 726.714 235.947 714.178 152 714.178C68.0527 714.178 0 726.714 0 742.178C0 757.642 68.0527 770.178 152 770.178Z" fill="white"/>
</g>
<g filter="url(#filter2_d)">
<path d="M245 328H516M516 328V268H791V388H516V328Z" stroke="black"/>
<path d="M791 283C807.569 283 821 276.284 821 268C821 259.716 807.569 253 791 253C774.431 253 761 259.716 761 268C761 276.284 774.431 283 791 283Z" fill="#FFFCC0"/>
<rect x="541" y="253" width="60" height="30" fill="#FFFCC0"/>
<rect x="541" y="373" width="60" height="30" fill="#FFFCC0"/>
<rect x="651" y="373" width="60" height="30" fill="#FFFCC0"/>
<rect x="761" y="373" width="60" height="30" fill="#FFFCC0"/>
<path d="M461 313L491 328L461 343L431 328L461 313Z" fill="#FFFCC0"/>
<rect x="321" y="313" width="60" height="30" fill="#FFFCC0"/>
<path d="M241 343C257.569 343 271 336.284 271 328C271 319.716 257.569 313 241 313C224.431 313 211 319.716 211 328C211 336.284 224.431 343 241 343Z" fill="#FFFCC0"/>
</g>
<g filter="url(#filter3_d)">
<path d="M256.39 493.658L229.273 507.339L231.028 510.834L258.144 497.153L256.39 493.658Z" fill="#FFFCC0"/>
<path d="M251.979 468.211L250.761 475.521C250.761 475.521 252.588 526.078 239.188 510.24C225.787 494.403 234.924 473.084 234.924 473.084L238.579 466.993L251.979 468.211Z" fill="#FBBEBE"/>
<path d="M174.014 234.31C174.014 234.31 171.578 259.893 170.36 261.111C169.141 262.33 188.633 285.476 188.633 285.476L205.688 269.639C205.688 269.639 204.47 246.493 208.125 241.62C211.779 236.747 174.014 234.31 174.014 234.31Z" fill="#FBBEBE"/>
<path opacity="0.1" d="M174.014 234.31C174.014 234.31 171.578 259.893 170.36 261.111C169.141 262.33 188.633 285.476 188.633 285.476L205.688 269.639C205.688 269.639 204.47 246.493 208.125 241.62C211.779 236.747 174.014 234.31 174.014 234.31Z" fill="#141414"/>
<path d="M128.939 700.894V722.822L120.411 724.041L108.229 720.386L111.883 697.239L128.939 700.894Z" fill="#3F3D56"/>
<path d="M117.975 711.858C117.975 711.858 114.32 702.112 108.229 703.33C102.138 704.549 100.919 711.858 100.919 711.858C100.919 711.858 96.0465 730.132 88.7371 736.223C81.4276 742.314 74.1182 758.151 88.7371 760.588C103.356 763.024 115.538 756.933 115.538 755.715C115.538 754.496 119.193 747.187 125.284 745.969C131.375 744.75 136.248 743.532 136.248 738.659C136.248 733.786 132.593 728.913 132.593 728.913C132.593 728.913 131.375 705.805 128.939 708.832C127.254 711.223 126.016 713.899 125.284 716.731L117.975 711.858Z" fill="#2F2E41"/>
<path d="M181.322 689.93L176.449 708.203L188.631 710.64L194.722 704.549L195.94 688.712L181.322 689.93Z" fill="#3F3D56"/>
<path d="M180.105 705.767C180.105 705.767 184.978 702.112 187.414 702.112H191.069C191.069 702.112 191.069 693.585 197.16 693.585C203.251 693.585 202.033 699.676 202.033 699.676C202.033 699.676 215.434 720.386 219.088 724.041C222.743 727.695 242.235 738.659 226.398 743.532C210.561 748.405 199.596 748.405 192.287 739.878C192.287 739.878 184.978 736.223 180.105 736.223C175.232 736.223 169.141 733.786 169.141 730.132C169.141 726.477 172.795 719.168 172.795 719.168C172.795 719.168 175.232 697.239 176.45 699.676C177.668 702.112 180.105 705.767 180.105 705.767Z" fill="#2F2E41"/>
<path d="M127.72 409.736V449.938C127.72 449.938 114.32 527.905 114.32 553.488C114.32 579.071 93.6099 700.894 103.356 703.331C113.102 705.767 136.248 709.422 137.466 705.767C138.685 702.112 147.212 586.38 148.43 585.162C149.649 583.944 175.232 487.703 175.232 487.703L180.105 488.921L182.541 598.562C182.541 598.562 170.359 697.239 176.45 697.239C182.541 697.239 208.124 696.021 208.124 688.712C208.124 681.402 221.525 546.178 221.525 546.178C221.525 546.178 237.362 438.974 231.27 428.01C225.179 417.046 225.179 410.954 225.179 410.954L127.72 409.736Z" fill="#2F2E41"/>
<path d="M194.115 253.193C207.571 253.193 218.479 242.285 218.479 228.828C218.479 215.372 207.571 204.464 194.115 204.464C180.658 204.464 169.75 215.372 169.75 228.828C169.75 242.285 180.658 253.193 194.115 253.193Z" fill="#FBBEBE"/>
<path d="M187.501 276.5C187.501 276.5 171.719 265.873 170.501 261C170.501 261 164.501 262 163.001 262.5C162.001 262.833 130.158 267.203 121.63 276.949C113.102 286.694 105.793 307.404 105.793 307.404L126.503 346.388C126.503 346.388 127.721 368.316 127.721 370.753C127.721 373.189 121.63 412.173 124.067 413.391C126.503 414.609 150.868 426.791 171.578 424.355C192.288 421.918 212.998 418.264 219.089 418.264C225.18 418.264 230.053 420.7 230.053 418.264C230.053 415.827 226.398 410.954 226.398 408.518C226.398 406.081 225.18 399.99 225.18 396.336C225.18 392.681 222.743 386.59 222.743 381.717C222.743 376.844 249.545 311.059 249.545 311.059C249.545 311.059 248.326 290.349 228.835 280.603C209.343 270.857 207.501 268.5 207.501 268.5C207.501 268.5 206.501 267.703 205.501 267.203C204.473 267.203 200.747 277.282 191.001 278.5L187.501 276.5Z" fill="#BCBCBC"/>
<path d="M122.848 432.883L131.376 446.283L153.304 441.41L137.467 423.137L122.848 432.883Z" fill="#FBBEBE"/>
<path d="M242.235 301.313L249.544 311.059C249.544 311.059 264.163 381.717 261.726 407.3C259.29 432.883 256.854 452.374 256.854 452.374C256.854 452.374 261.726 470.648 258.072 470.648C254.417 470.648 232.489 471.866 232.489 468.211C232.489 464.557 234.925 441.41 234.925 441.41L228.834 387.808L215.434 369.534L242.235 301.313Z" fill="#BCBCBC"/>
<path d="M177.566 217C179.06 216.367 180.786 216.88 182.386 216.61C184.264 216.293 185.945 214.901 187.841 215.077C188.74 215.244 189.613 215.527 190.439 215.92C190.853 216.115 191.302 216.224 191.759 216.24C192.217 216.256 192.672 216.18 193.099 216.016C193.303 215.921 193.483 215.783 193.626 215.61C193.769 215.437 193.873 215.235 193.928 215.017C193.983 214.8 193.99 214.573 193.946 214.353C193.903 214.133 193.811 213.925 193.678 213.745C195.283 213.603 196.8 212.95 198.005 211.882C198.246 211.632 198.525 211.423 198.831 211.262C199.189 211.169 199.562 211.15 199.927 211.207C200.292 211.264 200.641 211.395 200.954 211.593L203.741 212.878C204.369 213.1 204.922 213.495 205.334 214.017C205.666 214.534 205.731 215.23 206.2 215.625C206.8 216.13 207.695 215.883 208.478 215.933C209.188 216.002 209.848 216.329 210.332 216.853C210.817 217.376 211.093 218.059 211.107 218.773C211.096 219.591 210.799 220.594 211.446 221.095C211.821 221.385 212.354 221.339 212.793 221.517C213.933 221.98 213.937 223.566 213.769 224.784C213.601 226.003 213.684 227.61 214.855 227.985C215.68 228.249 216.523 227.686 217.379 227.56C218.672 227.371 219.868 228.179 221.018 228.798C222.169 229.416 223.698 229.834 224.695 228.99C225.623 228.205 225.563 226.768 225.308 225.58C224.942 223.876 224.34 222.231 223.521 220.693C223.217 220.24 223.039 219.716 223.002 219.172C223.072 218.789 223.222 218.426 223.442 218.105C223.662 217.785 223.948 217.514 224.28 217.312C225.69 216.198 227.312 215.075 227.768 213.337C228.103 212.062 227.726 210.716 227.756 209.397C227.791 207.793 228.429 206.195 228.13 204.619C227.587 201.76 224.406 200.385 222.353 198.324C219.532 195.492 218.616 190.963 215.286 188.751C212.622 186.982 209.137 187.193 206.104 186.181C202.771 185.069 200.089 182.514 196.802 181.274C195.008 180.612 193.089 180.356 191.184 180.523C189.279 180.69 187.435 181.277 185.783 182.241C184.802 182.968 183.707 183.527 182.543 183.896C181.563 184.009 180.572 183.998 179.595 183.861C177.652 183.761 175.716 184.161 173.971 185.022C173.304 185.289 172.748 185.776 172.396 186.403C171.808 187.71 172.662 189.754 171.372 190.379C170.771 190.67 170.061 190.391 169.393 190.406C168.093 190.434 167.094 191.565 166.476 192.708C165.993 193.917 165.301 195.03 164.431 195.998C162.843 197.389 159.958 197.619 159.543 199.689C159.535 200.565 159.585 201.441 159.692 202.311C159.572 204.146 157.608 205.54 157.711 207.375C157.829 209.493 160.519 210.527 161.238 212.522C161.786 214.041 161.065 215.683 160.569 217.22C160.074 218.757 159.924 220.726 161.204 221.71C161.707 222.096 162.352 222.254 162.864 222.626C164.189 223.59 164.172 225.534 164.025 227.166C163.94 227.505 163.94 227.859 164.024 228.198C164.108 228.537 164.273 228.85 164.506 229.11C164.725 229.242 164.97 229.327 165.224 229.357C165.478 229.388 165.735 229.364 165.979 229.287C166.774 229.094 167.522 228.741 168.176 228.248C168.83 227.756 169.377 227.135 169.783 226.424C170.209 225.719 170.295 225.097 171.07 224.723C171.596 224.469 172.235 224.696 172.77 224.366C175.317 222.798 174.44 218.324 177.566 217Z" fill="#2F2E41"/>
<path d="M109.447 303.75L105.792 307.404C105.792 307.404 83.864 373.189 91.1733 387.808C98.4827 402.427 113.102 438.974 117.974 437.756C122.847 436.537 139.903 425.573 139.903 424.355C139.903 423.137 119.193 389.026 119.193 389.026C119.193 389.026 116.756 381.717 117.974 380.499C119.193 379.28 119.193 380.499 117.974 378.062C116.756 375.626 116.756 378.062 119.193 375.626C121.629 373.189 121.629 373.189 121.629 371.971C121.629 370.753 128.939 340.297 128.939 340.297L109.447 303.75Z" fill="#BCBCBC"/>
<path d="M128.328 446.892L155.13 438.365L158.784 446.892L129.547 452.983L128.328 446.892Z" fill="#2F2E41"/>
<path opacity="0.1" d="M128.328 446.892L155.13 438.365L158.784 446.892L129.547 452.983L128.328 446.892Z" fill="#141414"/>
<path d="M190.529 225.728C190.453 228.883 187.916 231.354 184.894 231.281C181.871 231.208 179.456 228.617 179.533 225.462C179.552 224.673 179.721 224.105 179.978 223.688C180.234 223.276 180.599 222.977 181.074 222.761C182.055 222.315 183.447 222.244 185.111 222.284C186.775 222.324 188.163 222.463 189.121 222.956C189.584 223.194 189.934 223.51 190.17 223.935C190.407 224.363 190.549 224.939 190.529 225.728Z" fill="white" fill-opacity="0.4" stroke="#EFEFEF"/>
<path d="M208.526 226.163C208.449 229.318 205.912 231.789 202.89 231.716C199.867 231.643 197.452 229.052 197.529 225.897C197.548 225.108 197.717 224.54 197.975 224.123C198.23 223.711 198.595 223.412 199.07 223.196C200.051 222.75 201.443 222.679 203.107 222.719C204.771 222.759 206.159 222.898 207.117 223.391C207.58 223.629 207.931 223.945 208.166 224.37C208.404 224.798 208.545 225.374 208.526 226.163Z" fill="white" fill-opacity="0.4" stroke="#EFEFEF"/>
<path d="M190.538 225.416L192.374 224.553C192.494 224.496 192.632 224.49 192.757 224.535L193.893 224.944C193.994 224.981 194.105 224.983 194.209 224.952L195.363 224.598C195.49 224.559 195.627 224.572 195.744 224.634L197.536 225.585" stroke="#EFEFEF"/>
<rect width="31" height="15" transform="matrix(0.991689 0.128655 -0.127975 0.991777 193.193 312.74)" fill="#141414"/>
<path d="M200.702 317.812L199.942 323.699L198.506 323.513L198.561 323.084C198.238 323.381 197.796 323.493 197.235 323.42C196.844 323.37 196.499 323.233 196.199 323.012C195.9 322.785 195.678 322.49 195.531 322.126C195.389 321.764 195.347 321.36 195.405 320.916C195.462 320.472 195.605 320.095 195.833 319.786C196.067 319.472 196.357 319.246 196.703 319.108C197.049 318.97 197.417 318.926 197.809 318.977C198.322 319.044 198.699 319.243 198.941 319.576L199.194 317.616L200.702 317.812ZM197.707 322.263C197.966 322.297 198.192 322.235 198.385 322.077C198.578 321.914 198.695 321.671 198.737 321.348C198.778 321.031 198.725 320.771 198.579 320.57C198.438 320.368 198.236 320.251 197.971 320.216C197.707 320.182 197.479 320.244 197.286 320.402C197.094 320.56 196.977 320.797 196.936 321.115C196.894 321.437 196.946 321.702 197.092 321.909C197.238 322.111 197.443 322.229 197.707 322.263ZM206.013 320.114L205.458 324.414L204.022 324.228L204.077 323.8C203.754 324.097 203.309 324.208 202.743 324.135C202.352 324.084 202.006 323.948 201.707 323.726C201.413 323.5 201.193 323.205 201.047 322.842C200.905 322.479 200.863 322.076 200.92 321.632C200.978 321.187 201.121 320.81 201.349 320.501C201.583 320.187 201.87 319.961 202.211 319.822C202.556 319.684 202.925 319.641 203.316 319.692C203.824 319.758 204.204 319.957 204.457 320.291L204.505 319.918L206.013 320.114ZM203.215 322.978C203.479 323.012 203.708 322.95 203.9 322.793C204.094 322.629 204.211 322.386 204.253 322.064C204.294 321.746 204.241 321.487 204.095 321.285C203.949 321.083 203.744 320.965 203.479 320.931C203.215 320.897 202.986 320.958 202.794 321.116C202.601 321.274 202.485 321.512 202.444 321.829C202.402 322.152 202.454 322.417 202.599 322.624C202.745 322.826 202.951 322.944 203.215 322.978ZM209.793 320.532C210.327 320.601 210.735 320.815 211.016 321.175C211.303 321.535 211.406 322.034 211.323 322.674L211.006 325.134L209.498 324.939L209.784 322.725C209.86 322.138 209.662 321.814 209.191 321.753C208.932 321.719 208.712 321.777 208.532 321.925C208.357 322.075 208.247 322.319 208.204 322.657L207.935 324.736L206.428 324.54L206.983 320.24L208.419 320.426L208.358 320.894C208.55 320.742 208.768 320.636 209.013 320.576C209.258 320.511 209.518 320.496 209.793 320.532ZM217.194 321.565L216.741 325.079C216.638 325.878 216.344 326.448 215.859 326.788C215.373 327.134 214.723 327.254 213.909 327.148C213.485 327.093 213.095 326.994 212.737 326.851C212.379 326.708 212.082 326.527 211.847 326.308L212.531 325.324C212.687 325.489 212.892 325.629 213.146 325.743C213.405 325.862 213.664 325.939 213.923 325.972C214.32 326.024 214.622 325.974 214.83 325.824C215.037 325.673 215.163 325.426 215.208 325.082L215.226 324.939C214.892 325.24 214.444 325.354 213.883 325.282C213.502 325.232 213.162 325.102 212.861 324.891C212.561 324.674 212.336 324.398 212.186 324.061C212.036 323.719 211.988 323.342 212.041 322.929C212.094 322.522 212.235 322.174 212.466 321.887C212.697 321.594 212.985 321.384 213.33 321.257C213.675 321.124 214.038 321.083 214.419 321.132C215.032 321.212 215.456 321.468 215.691 321.902L215.758 321.378L217.194 321.565ZM214.395 324.13C214.665 324.165 214.897 324.112 215.093 323.97C215.294 323.83 215.411 323.63 215.445 323.371C215.478 323.111 215.418 322.891 215.264 322.71C215.11 322.523 214.896 322.412 214.621 322.376C214.346 322.341 214.108 322.393 213.907 322.534C213.712 322.67 213.598 322.867 213.564 323.127C213.531 323.386 213.594 323.609 213.752 323.796C213.911 323.984 214.125 324.095 214.395 324.13ZM218.233 326.144C217.979 326.111 217.776 325.999 217.623 325.807C217.471 325.615 217.411 325.39 217.445 325.13C217.479 324.866 217.591 324.663 217.781 324.521C217.977 324.379 218.204 324.326 218.464 324.359C218.728 324.393 218.934 324.504 219.082 324.689C219.23 324.875 219.287 325.101 219.253 325.365C219.22 325.624 219.105 325.827 218.909 325.974C218.718 326.121 218.492 326.178 218.233 326.144Z" fill="#EFEFEF"/>
</g>
</g>
<defs>
<filter id="filter0_d" x="111.5" y="152.678" width="796" height="366" filterUnits="userSpaceOnUse" color-interpolation-filters="sRGB">
<feFlood flood-opacity="0" result="BackgroundImageFix"/>
<feColorMatrix in="SourceAlpha" type="matrix" values="0 0 0 0 0 0 0 0 0 0 0 0 0 0 0 0 0 0 127 0"/>
<feOffset dy="4"/>
<feGaussianBlur stdDeviation="2"/>
<feColorMatrix type="matrix" values="0 0 0 0 0 0 0 0 0 0 0 0 0 0 0 0 0 0 0.25 0"/>
<feBlend mode="normal" in2="BackgroundImageFix" result="effect1_dropShadow"/>
<feBlend mode="normal" in="SourceGraphic" in2="effect1_dropShadow" result="shape"/>
</filter>
<filter id="filter1_i" x="0" y="714.178" width="304" height="58" filterUnits="userSpaceOnUse" color-interpolation-filters="sRGB">
<feFlood flood-opacity="0" result="BackgroundImageFix"/>
<feBlend mode="normal" in="SourceGraphic" in2="BackgroundImageFix" result="shape"/>
<feColorMatrix in="SourceAlpha" type="matrix" values="0 0 0 0 0 0 0 0 0 0 0 0 0 0 0 0 0 0 127 0" result="hardAlpha"/>
<feOffset dy="2"/>
<feGaussianBlur stdDeviation="2"/>
<feComposite in2="hardAlpha" operator="arithmetic" k2="-1" k3="1"/>
<feColorMatrix type="matrix" values="0 0 0 0 0.0784314 0 0 0 0 0.0784314 0 0 0 0 0.0784314 0 0 0 0.25 0"/>
<feBlend mode="normal" in2="shape" result="effect1_innerShadow"/>
</filter>
<filter id="filter2_d" x="207" y="251" width="618" height="158" filterUnits="userSpaceOnUse" color-interpolation-filters="sRGB">
<feFlood flood-opacity="0" result="BackgroundImageFix"/>
<feColorMatrix in="SourceAlpha" type="matrix" values="0 0 0 0 0 0 0 0 0 0 0 0 0 0 0 0 0 0 127 0"/>
<feOffset dy="2"/>
<feGaussianBlur stdDeviation="2"/>
<feColorMatrix type="matrix" values="0 0 0 0 0 0 0 0 0 0 0 0 0 0 0 0 0 0 0.25 0"/>
<feBlend mode="normal" in2="BackgroundImageFix" result="effect1_dropShadow"/>
<feBlend mode="normal" in="SourceGraphic" in2="effect1_dropShadow" result="shape"/>
</filter>
<filter id="filter3_d" x="76.2969" y="180.473" width="189.704" height="588.684" filterUnits="userSpaceOnUse" color-interpolation-filters="sRGB">
<feFlood flood-opacity="0" result="BackgroundImageFix"/>
<feColorMatrix in="SourceAlpha" type="matrix" values="0 0 0 0 0 0 0 0 0 0 0 0 0 0 0 0 0 0 127 0"/>
<feOffset dy="4"/>
<feGaussianBlur stdDeviation="2"/>
<feColorMatrix type="matrix" values="0 0 0 0 0 0 0 0 0 0 0 0 0 0 0 0 0 0 0.25 0"/>
<feBlend mode="normal" in2="BackgroundImageFix" result="effect1_dropShadow"/>
<feBlend mode="normal" in="SourceGraphic" in2="effect1_dropShadow" result="shape"/>
</filter>
<clipPath id="clip0">
<rect width="991" height="778" fill="white"/>
</clipPath>
</defs>
</svg>
