<svg width="999" height="780" viewBox="0 0 999 780" fill="none" xmlns="http://www.w3.org/2000/svg">
<g clip-path="url(#clip0)" filter="url(#filter0_d)">
<path d="M293.58 2L135.726 87.5022C138.426 92.1493 140.165 97.2908 140.841 102.622C141.516 107.954 141.115 113.367 139.66 118.54C138.206 123.714 135.728 128.543 132.373 132.741C129.018 136.939 124.854 140.421 120.129 142.981C115.403 145.54 110.212 147.125 104.863 147.642C99.5136 148.158 94.1151 147.596 88.9872 145.988C83.8594 144.38 79.1064 141.758 75.0101 138.28C70.9138 134.801 67.5574 130.536 65.1398 125.736L11.3164 154.89L150.736 412.284L432.999 259.394L293.58 2Z" fill="white"/>
<path d="M98.603 140.255C116.601 140.255 131.19 125.665 131.19 107.668C131.19 89.6704 116.601 75.0806 98.603 75.0806C80.6055 75.0806 66.0156 89.6704 66.0156 107.668C66.0156 125.665 80.6055 140.255 98.603 140.255Z" fill="#FFFCC0"/>
<path d="M689.955 691.064L860.627 635.393C858.809 630.336 858.024 624.965 858.32 619.599C858.616 614.233 859.985 608.981 862.348 604.154C864.71 599.327 868.018 595.024 872.074 591.499C876.131 587.973 880.853 585.298 885.962 583.632C891.072 581.965 896.463 581.341 901.818 581.796C907.173 582.252 912.382 583.778 917.136 586.283C921.89 588.788 926.093 592.223 929.496 596.382C932.899 600.542 935.432 605.342 936.946 610.499L995.14 591.516L904.363 313.22L599.178 412.767L689.955 691.064Z" fill="white"/>
<path d="M900.775 654.831C918.772 654.831 933.362 640.241 933.362 622.244C933.362 604.246 918.772 589.656 900.775 589.656C882.777 589.656 868.188 604.246 868.188 622.244C868.188 640.241 882.777 654.831 900.775 654.831Z" fill="#FFFCC0"/>
<path d="M907.5 154.678H119.5V512.678H907.5V154.678Z" fill="#3F3D56"/>
<path d="M894.5 167.678H132.5V492.678H894.5V167.678Z" fill="#EFEFEF"/>
<path d="M817 477.178H743V502.178H817V477.178Z" fill="#3F3D56"/>
<path d="M739 496.178H685V503.178H739V496.178Z" fill="#FFFCC0"/>
<path d="M156 772.178C239.947 772.178 308 759.642 308 744.178C308 728.714 239.947 716.178 156 716.178C72.0527 716.178 4 728.714 4 744.178C4 759.642 72.0527 772.178 156 772.178Z" fill="#F2F2F2"/>
<g filter="url(#filter1_d)">
<path d="M249 330H520M520 330V270H795V390H520V330Z" stroke="black"/>
<path d="M245 345C261.569 345 275 338.284 275 330C275 321.716 261.569 315 245 315C228.431 315 215 321.716 215 330C215 338.284 228.431 345 245 345Z" fill="#FFFCC0"/>
<path d="M795 285C811.569 285 825 278.284 825 270C825 261.716 811.569 255 795 255C778.431 255 765 261.716 765 270C765 278.284 778.431 285 795 285Z" fill="#FFFCC0"/>
<rect x="325" y="315" width="60" height="30" fill="#FFFCC0"/>
<rect x="545" y="255" width="60" height="30" fill="#FFFCC0"/>
<rect x="545" y="375" width="60" height="30" fill="#FFFCC0"/>
<rect x="655" y="375" width="60" height="30" fill="#FFFCC0"/>
<rect x="765" y="375" width="60" height="30" fill="#FFFCC0"/>
<path d="M465 315L495 330L465 345L435 330L465 315Z" fill="#FFFCC0"/>
</g>
<path d="M260.39 495.658L233.273 509.339L235.028 512.834L262.144 499.153L260.39 495.658Z" fill="#FFFCC0"/>
<path d="M255.979 470.211L254.761 477.521C254.761 477.521 256.588 528.078 243.188 512.24C229.787 496.403 238.924 475.084 238.924 475.084L242.579 468.993L255.979 470.211Z" fill="#FBBEBE"/>
<path d="M178.014 236.31C178.014 236.31 175.578 261.893 174.36 263.111C173.141 264.33 192.633 287.476 192.633 287.476L209.688 271.639C209.688 271.639 208.47 248.493 212.125 243.62C215.779 238.747 178.014 236.31 178.014 236.31Z" fill="#FBBEBE"/>
<path opacity="0.1" d="M178.014 236.31C178.014 236.31 175.578 261.893 174.36 263.111C173.141 264.33 192.633 287.476 192.633 287.476L209.688 271.639C209.688 271.639 208.47 248.493 212.125 243.62C215.779 238.747 178.014 236.31 178.014 236.31Z" fill="#141414"/>
<path d="M132.939 702.894V724.822L124.411 726.041L112.229 722.386L115.883 699.239L132.939 702.894Z" fill="#3F3D56"/>
<path d="M121.975 713.858C121.975 713.858 118.32 704.112 112.229 705.33C106.138 706.549 104.919 713.858 104.919 713.858C104.919 713.858 100.046 732.132 92.7371 738.223C85.4276 744.314 78.1182 760.151 92.7371 762.588C107.356 765.024 119.538 758.933 119.538 757.715C119.538 756.496 123.193 749.187 129.284 747.969C135.375 746.75 140.248 745.532 140.248 740.659C140.248 735.786 136.593 730.913 136.593 730.913C136.593 730.913 135.375 707.805 132.939 710.832C131.254 713.223 130.016 715.899 129.284 718.731L121.975 713.858Z" fill="#2F2E41"/>
<path d="M185.322 691.93L180.449 710.203L192.631 712.64L198.722 706.549L199.94 690.712L185.322 691.93Z" fill="#3F3D56"/>
<path d="M184.105 707.767C184.105 707.767 188.978 704.112 191.414 704.112H195.069C195.069 704.112 195.069 695.585 201.16 695.585C207.251 695.585 206.033 701.676 206.033 701.676C206.033 701.676 219.434 722.386 223.088 726.041C226.743 729.695 246.235 740.659 230.398 745.532C214.561 750.405 203.596 750.405 196.287 741.878C196.287 741.878 188.978 738.223 184.105 738.223C179.232 738.223 173.141 735.786 173.141 732.132C173.141 728.477 176.795 721.168 176.795 721.168C176.795 721.168 179.232 699.239 180.45 701.676C181.668 704.112 184.105 707.767 184.105 707.767Z" fill="#2F2E41"/>
<path d="M131.72 411.736V451.938C131.72 451.938 118.32 529.905 118.32 555.488C118.32 581.071 97.6099 702.894 107.356 705.331C117.102 707.767 140.248 711.422 141.466 707.767C142.685 704.112 151.212 588.38 152.43 587.162C153.649 585.944 179.232 489.703 179.232 489.703L184.105 490.921L186.541 600.562C186.541 600.562 174.359 699.239 180.45 699.239C186.541 699.239 212.124 698.021 212.124 690.712C212.124 683.402 225.525 548.178 225.525 548.178C225.525 548.178 241.362 440.974 235.27 430.01C229.179 419.046 229.179 412.954 229.179 412.954L131.72 411.736Z" fill="#2F2E41"/>
<path d="M198.115 255.193C211.571 255.193 222.479 244.285 222.479 230.828C222.479 217.372 211.571 206.464 198.115 206.464C184.658 206.464 173.75 217.372 173.75 230.828C173.75 244.285 184.658 255.193 198.115 255.193Z" fill="#FBBEBE"/>
<path d="M191.501 278.5C191.501 278.5 175.719 267.873 174.501 263C174.501 263 168.501 264 167.001 264.5C166.001 264.833 134.158 269.203 125.63 278.949C117.102 288.694 109.793 309.404 109.793 309.404L130.503 348.388C130.503 348.388 131.721 370.316 131.721 372.753C131.721 375.189 125.63 414.173 128.067 415.391C130.503 416.609 154.868 428.791 175.578 426.355C196.288 423.918 216.998 420.264 223.089 420.264C229.18 420.264 234.053 422.7 234.053 420.264C234.053 417.827 230.398 412.954 230.398 410.518C230.398 408.081 229.18 401.99 229.18 398.336C229.18 394.681 226.743 388.59 226.743 383.717C226.743 378.844 253.545 313.059 253.545 313.059C253.545 313.059 252.326 292.349 232.835 282.603C213.343 272.857 211.501 270.5 211.501 270.5C211.501 270.5 210.501 269.703 209.501 269.203C208.473 269.203 204.747 279.282 195.001 280.5L191.501 278.5Z" fill="#BCBCBC"/>
<path d="M126.848 434.883L135.376 448.283L157.304 443.41L141.467 425.137L126.848 434.883Z" fill="#FBBEBE"/>
<path d="M246.235 303.313L253.544 313.059C253.544 313.059 268.163 383.717 265.726 409.3C263.29 434.883 260.854 454.374 260.854 454.374C260.854 454.374 265.726 472.648 262.072 472.648C258.417 472.648 236.489 473.866 236.489 470.211C236.489 466.557 238.925 443.41 238.925 443.41L232.834 389.808L219.434 371.534L246.235 303.313Z" fill="#BCBCBC"/>
<path d="M181.566 219C183.06 218.367 184.786 218.88 186.386 218.61C188.264 218.293 189.945 216.901 191.841 217.077C192.74 217.244 193.613 217.527 194.439 217.92C194.853 218.115 195.302 218.224 195.759 218.24C196.217 218.256 196.672 218.18 197.099 218.016C197.303 217.921 197.483 217.783 197.626 217.61C197.769 217.437 197.873 217.235 197.928 217.017C197.983 216.8 197.99 216.573 197.946 216.353C197.903 216.133 197.811 215.925 197.678 215.745C199.283 215.603 200.8 214.95 202.005 213.882C202.246 213.632 202.525 213.423 202.831 213.262C203.189 213.169 203.562 213.15 203.927 213.207C204.292 213.264 204.641 213.395 204.954 213.593L207.741 214.878C208.369 215.1 208.922 215.495 209.334 216.017C209.666 216.534 209.731 217.23 210.2 217.625C210.8 218.13 211.695 217.883 212.478 217.933C213.188 218.002 213.848 218.329 214.332 218.853C214.817 219.376 215.093 220.059 215.107 220.773C215.096 221.591 214.799 222.594 215.446 223.095C215.821 223.385 216.354 223.339 216.793 223.517C217.933 223.98 217.937 225.566 217.769 226.784C217.601 228.003 217.684 229.61 218.855 229.985C219.68 230.249 220.523 229.686 221.379 229.56C222.672 229.371 223.868 230.179 225.018 230.798C226.169 231.416 227.698 231.834 228.695 230.99C229.623 230.205 229.563 228.768 229.308 227.58C228.942 225.876 228.34 224.231 227.521 222.693C227.217 222.24 227.039 221.716 227.002 221.172C227.072 220.789 227.222 220.426 227.442 220.105C227.662 219.785 227.948 219.514 228.28 219.312C229.69 218.198 231.312 217.075 231.768 215.337C232.103 214.062 231.726 212.716 231.756 211.397C231.791 209.793 232.429 208.195 232.13 206.619C231.587 203.76 228.406 202.385 226.353 200.324C223.532 197.492 222.616 192.963 219.286 190.751C216.622 188.982 213.137 189.193 210.104 188.181C206.771 187.069 204.089 184.514 200.802 183.274C199.008 182.612 197.089 182.356 195.184 182.523C193.279 182.69 191.435 183.277 189.783 184.241C188.802 184.968 187.707 185.527 186.543 185.896C185.563 186.009 184.572 185.998 183.595 185.861C181.652 185.761 179.716 186.161 177.971 187.022C177.304 187.289 176.748 187.776 176.396 188.403C175.808 189.71 176.662 191.754 175.372 192.379C174.771 192.67 174.061 192.391 173.393 192.406C172.093 192.434 171.094 193.565 170.476 194.708C169.993 195.917 169.301 197.03 168.431 197.998C166.843 199.389 163.958 199.619 163.543 201.689C163.535 202.565 163.585 203.441 163.692 204.311C163.572 206.146 161.608 207.54 161.711 209.375C161.829 211.493 164.519 212.527 165.238 214.522C165.786 216.041 165.065 217.683 164.569 219.22C164.074 220.757 163.924 222.726 165.204 223.71C165.707 224.096 166.352 224.254 166.864 224.626C168.189 225.59 168.172 227.534 168.025 229.166C167.94 229.505 167.94 229.859 168.024 230.198C168.108 230.537 168.273 230.85 168.506 231.11C168.725 231.242 168.97 231.327 169.224 231.357C169.478 231.388 169.735 231.364 169.979 231.287C170.774 231.094 171.522 230.741 172.176 230.248C172.83 229.756 173.377 229.135 173.783 228.424C174.209 227.719 174.295 227.097 175.07 226.723C175.596 226.469 176.235 226.696 176.77 226.366C179.317 224.798 178.44 220.324 181.566 219Z" fill="#2F2E41"/>
<path d="M113.447 305.75L109.792 309.404C109.792 309.404 87.864 375.189 95.1733 389.808C102.483 404.427 117.102 440.974 121.974 439.756C126.847 438.537 143.903 427.573 143.903 426.355C143.903 425.137 123.193 391.026 123.193 391.026C123.193 391.026 120.756 383.717 121.974 382.499C123.193 381.28 123.193 382.499 121.974 380.062C120.756 377.626 120.756 380.062 123.193 377.626C125.629 375.189 125.629 375.189 125.629 373.971C125.629 372.753 132.939 342.297 132.939 342.297L113.447 305.75Z" fill="#BCBCBC"/>
<path d="M132.328 448.892L159.13 440.365L162.784 448.892L133.547 454.983L132.328 448.892Z" fill="#2F2E41"/>
<path opacity="0.1" d="M132.328 448.892L159.13 440.365L162.784 448.892L133.547 454.983L132.328 448.892Z" fill="#141414"/>
<path d="M194.529 227.728C194.453 230.883 191.916 233.354 188.894 233.281C185.871 233.208 183.456 230.617 183.533 227.462C183.552 226.673 183.721 226.105 183.978 225.688C184.234 225.276 184.599 224.977 185.074 224.761C186.055 224.315 187.447 224.244 189.111 224.284C190.775 224.324 192.163 224.463 193.121 224.956C193.584 225.194 193.934 225.51 194.17 225.935C194.407 226.363 194.549 226.939 194.529 227.728Z" fill="white" fill-opacity="0.4" stroke="#EFEFEF"/>
<path d="M212.526 228.163C212.449 231.318 209.912 233.789 206.89 233.716C203.867 233.643 201.452 231.052 201.529 227.897C201.548 227.108 201.717 226.54 201.975 226.123C202.23 225.711 202.595 225.412 203.07 225.196C204.051 224.75 205.443 224.679 207.107 224.719C208.771 224.759 210.159 224.898 211.117 225.391C211.58 225.629 211.931 225.945 212.166 226.37C212.404 226.798 212.545 227.374 212.526 228.163Z" fill="white" fill-opacity="0.4" stroke="#EFEFEF"/>
<path d="M194.538 227.416L196.374 226.553C196.494 226.496 196.632 226.49 196.757 226.535L197.893 226.944C197.994 226.981 198.105 226.983 198.209 226.952L199.363 226.598C199.49 226.559 199.627 226.572 199.744 226.634L201.536 227.585" stroke="#EFEFEF"/>
<rect width="31" height="15" transform="matrix(0.991689 0.128655 -0.127975 0.991777 197.193 314.74)" fill="#141414"/>
<path d="M204.702 319.812L203.942 325.699L202.506 325.513L202.561 325.084C202.238 325.381 201.796 325.493 201.235 325.42C200.844 325.37 200.499 325.233 200.199 325.012C199.9 324.785 199.678 324.49 199.531 324.126C199.389 323.764 199.347 323.36 199.405 322.916C199.462 322.472 199.605 322.095 199.833 321.786C200.067 321.472 200.357 321.246 200.703 321.108C201.049 320.97 201.417 320.926 201.809 320.977C202.322 321.044 202.699 321.243 202.941 321.576L203.194 319.616L204.702 319.812ZM201.707 324.263C201.966 324.297 202.192 324.235 202.385 324.077C202.578 323.914 202.695 323.671 202.737 323.348C202.778 323.031 202.725 322.771 202.579 322.57C202.438 322.368 202.236 322.251 201.971 322.216C201.707 322.182 201.479 322.244 201.286 322.402C201.094 322.56 200.977 322.797 200.936 323.115C200.894 323.437 200.946 323.702 201.092 323.909C201.238 324.111 201.443 324.229 201.707 324.263ZM210.013 322.114L209.458 326.414L208.022 326.228L208.077 325.8C207.754 326.097 207.309 326.208 206.743 326.135C206.352 326.084 206.006 325.948 205.707 325.726C205.413 325.5 205.193 325.205 205.047 324.842C204.905 324.479 204.863 324.076 204.92 323.632C204.978 323.187 205.121 322.81 205.349 322.501C205.583 322.187 205.87 321.961 206.211 321.822C206.556 321.684 206.925 321.641 207.316 321.692C207.824 321.758 208.204 321.957 208.457 322.291L208.505 321.918L210.013 322.114ZM207.215 324.978C207.479 325.012 207.708 324.95 207.9 324.793C208.094 324.629 208.211 324.386 208.253 324.064C208.294 323.746 208.241 323.487 208.095 323.285C207.949 323.083 207.744 322.965 207.479 322.931C207.215 322.897 206.986 322.958 206.794 323.116C206.601 323.274 206.485 323.512 206.444 323.829C206.402 324.152 206.454 324.417 206.599 324.624C206.745 324.826 206.951 324.944 207.215 324.978ZM213.793 322.532C214.327 322.601 214.735 322.815 215.016 323.175C215.303 323.535 215.406 324.034 215.323 324.674L215.006 327.134L213.498 326.939L213.784 324.725C213.86 324.138 213.662 323.814 213.191 323.753C212.932 323.719 212.712 323.777 212.532 323.925C212.357 324.075 212.247 324.319 212.204 324.657L211.935 326.736L210.428 326.54L210.983 322.24L212.419 322.426L212.358 322.894C212.55 322.742 212.768 322.636 213.013 322.576C213.258 322.511 213.518 322.496 213.793 322.532ZM221.194 323.565L220.741 327.079C220.638 327.878 220.344 328.448 219.859 328.788C219.373 329.134 218.723 329.254 217.909 329.148C217.485 329.093 217.095 328.994 216.737 328.851C216.379 328.708 216.082 328.527 215.847 328.308L216.531 327.324C216.687 327.489 216.892 327.629 217.146 327.743C217.405 327.862 217.664 327.939 217.923 327.972C218.32 328.024 218.622 327.974 218.83 327.824C219.037 327.673 219.163 327.426 219.208 327.082L219.226 326.939C218.892 327.24 218.444 327.354 217.883 327.282C217.502 327.232 217.162 327.102 216.861 326.891C216.561 326.674 216.336 326.398 216.186 326.061C216.036 325.719 215.988 325.342 216.041 324.929C216.094 324.522 216.235 324.174 216.466 323.887C216.697 323.594 216.985 323.384 217.33 323.257C217.675 323.124 218.038 323.083 218.419 323.132C219.032 323.212 219.456 323.468 219.691 323.902L219.758 323.378L221.194 323.565ZM218.395 326.13C218.665 326.165 218.897 326.112 219.093 325.97C219.294 325.83 219.411 325.63 219.445 325.371C219.478 325.111 219.418 324.891 219.264 324.71C219.11 324.523 218.896 324.412 218.621 324.376C218.346 324.341 218.108 324.393 217.907 324.534C217.712 324.67 217.598 324.867 217.564 325.127C217.531 325.386 217.594 325.609 217.752 325.796C217.911 325.984 218.125 326.095 218.395 326.13ZM222.233 328.144C221.979 328.111 221.776 327.999 221.623 327.807C221.471 327.615 221.411 327.39 221.445 327.13C221.479 326.866 221.591 326.663 221.781 326.521C221.977 326.379 222.204 326.326 222.464 326.359C222.728 326.393 222.934 326.504 223.082 326.689C223.23 326.875 223.287 327.101 223.253 327.365C223.22 327.624 223.105 327.827 222.909 327.974C222.718 328.121 222.492 328.178 222.233 328.144Z" fill="#EFEFEF"/>
</g>
<defs>
<filter id="filter0_d" x="0" y="0" width="999" height="786" filterUnits="userSpaceOnUse" color-interpolation-filters="sRGB">
<feFlood flood-opacity="0" result="BackgroundImageFix"/>
<feColorMatrix in="SourceAlpha" type="matrix" values="0 0 0 0 0 0 0 0 0 0 0 0 0 0 0 0 0 0 127 0"/>
<feOffset dy="2"/>
<feGaussianBlur stdDeviation="2"/>
<feColorMatrix type="matrix" values="0 0 0 0 0 0 0 0 0 0 0 0 0 0 0 0 0 0 0.25 0"/>
<feBlend mode="normal" in2="BackgroundImageFix" result="effect1_dropShadow"/>
<feBlend mode="normal" in="SourceGraphic" in2="effect1_dropShadow" result="shape"/>
</filter>
<filter id="filter1_d" x="211" y="253" width="618" height="158" filterUnits="userSpaceOnUse" color-interpolation-filters="sRGB">
<feFlood flood-opacity="0" result="BackgroundImageFix"/>
<feColorMatrix in="SourceAlpha" type="matrix" values="0 0 0 0 0 0 0 0 0 0 0 0 0 0 0 0 0 0 127 0"/>
<feOffset dy="2"/>
<feGaussianBlur stdDeviation="2"/>
<feColorMatrix type="matrix" values="0 0 0 0 0 0 0 0 0 0 0 0 0 0 0 0 0 0 0.25 0"/>
<feBlend mode="normal" in2="BackgroundImageFix" result="effect1_dropShadow"/>
<feBlend mode="normal" in="SourceGraphic" in2="effect1_dropShadow" result="shape"/>
</filter>
<clipPath id="clip0">
<rect width="991" height="778" fill="white" transform="translate(4 2)"/>
</clipPath>
</defs>
</svg>
