<svg width="526" height="440" viewBox="0 0 526 440" fill="none" xmlns="http://www.w3.org/2000/svg">
<g clip-path="url(#clip0)" filter="url(#filter0_d)">
<path d="M263.779 427.031C121.014 427.031 5.2793 414.495 5.2793 399.031C5.2793 383.567 121.014 371.031 263.779 371.031C406.545 371.031 522.279 383.567 522.279 399.031C522.279 414.495 406.545 427.031 263.779 427.031Z" fill="#E6E6E6"/>
<path d="M353.948 37.326C354.476 37.3266 354.981 37.5366 355.354 37.9099C355.727 38.2832 355.937 38.7893 355.938 39.3172V191.442C355.937 191.969 355.727 192.476 355.354 192.849C354.981 193.222 354.476 193.432 353.948 193.433H6.98865C6.46116 193.432 5.95541 193.222 5.58242 192.849C5.20943 192.476 4.99969 191.969 4.9992 191.442V39.3172C4.99975 38.7893 5.20951 38.2832 5.58249 37.9099C5.95546 37.5366 6.46118 37.3266 6.98865 37.326H353.948Z" fill="#E6E6E6"/>
<path d="M53.9388 67.3381H306.996C307.31 67.3387 307.621 67.2774 307.912 67.1576C308.202 67.0378 308.465 66.8619 308.688 66.64C308.91 66.418 309.086 66.1544 309.206 65.8642C309.327 65.574 309.389 65.2629 309.389 64.9487C309.389 64.6345 309.327 64.3234 309.206 64.0332C309.086 63.7429 308.91 63.4793 308.688 63.2574C308.465 63.0355 308.202 62.8595 307.912 62.7398C307.621 62.62 307.31 62.5586 306.996 62.5593H53.9388C53.3065 62.5606 52.7006 62.8129 52.2539 63.2609C51.8072 63.7088 51.5564 64.3158 51.5564 64.9487C51.5564 65.5815 51.8072 66.1886 52.2539 66.6365C52.7006 67.0845 53.3065 67.3368 53.9388 67.3381V67.3381Z" fill="#141414"/>
<path d="M53.9379 86.4532H306.995C307.629 86.4532 308.236 86.2014 308.684 85.7533C309.131 85.3052 309.383 84.6975 309.383 84.0638C309.383 83.4301 309.131 82.8223 308.684 82.3742C308.236 81.9261 307.629 81.6744 306.995 81.6744H53.9379C53.3047 81.6744 52.6975 81.9261 52.2498 82.3742C51.8021 82.8223 51.5505 83.4301 51.5505 84.0638C51.5505 84.6975 51.8021 85.3052 52.2498 85.7533C52.6975 86.2014 53.3047 86.4532 53.9379 86.4532Z" fill="#141414"/>
<path d="M53.9388 105.568H306.996C307.31 105.569 307.621 105.508 307.912 105.388C308.202 105.268 308.465 105.092 308.688 104.87C308.91 104.648 309.086 104.385 309.206 104.094C309.327 103.804 309.389 103.493 309.389 103.179C309.389 102.865 309.327 102.554 309.206 102.263C309.086 101.973 308.91 101.709 308.688 101.488C308.465 101.266 308.202 101.09 307.912 100.97C307.621 100.85 307.31 100.789 306.996 100.789H53.9388C53.3065 100.791 52.7006 101.043 52.2539 101.491C51.8072 101.939 51.5564 102.546 51.5564 103.179C51.5564 103.812 51.8072 104.419 52.2539 104.867C52.7006 105.315 53.3065 105.567 53.9388 105.568V105.568Z" fill="#141414"/>
<path d="M53.9379 124.539H306.995C307.629 124.539 308.236 124.287 308.684 123.839C309.131 123.391 309.383 122.783 309.383 122.149C309.383 121.516 309.131 120.908 308.684 120.46C308.236 120.012 307.629 119.76 306.995 119.76H53.9379C53.3047 119.76 52.6975 120.012 52.2498 120.46C51.8021 120.908 51.5505 121.516 51.5505 122.149C51.5505 122.783 51.8021 123.391 52.2498 123.839C52.6975 124.287 53.3047 124.539 53.9379 124.539V124.539Z" fill="#141414"/>
<path d="M53.9388 143.654H306.996C307.31 143.654 307.621 143.593 307.912 143.473C308.202 143.353 308.465 143.178 308.688 142.956C308.91 142.734 309.086 142.47 309.206 142.18C309.327 141.89 309.389 141.579 309.389 141.264C309.389 140.95 309.327 140.639 309.206 140.349C309.086 140.059 308.91 139.795 308.688 139.573C308.465 139.351 308.202 139.175 307.912 139.055C307.621 138.936 307.31 138.874 306.996 138.875H53.9388C53.3057 138.875 52.6984 139.127 52.2507 139.575C51.803 140.023 51.5515 140.631 51.5515 141.264C51.5515 141.898 51.803 142.506 52.2507 142.954C52.6984 143.402 53.3057 143.654 53.9388 143.654V143.654Z" fill="#141414"/>
<path d="M118.172 159.56C118.353 159.56 118.526 159.632 118.654 159.76C118.781 159.888 118.853 160.061 118.854 160.242V178.329C118.853 178.51 118.781 178.683 118.654 178.811C118.526 178.939 118.353 179.011 118.172 179.011H54.9582C54.7775 179.011 54.6042 178.939 54.4764 178.811C54.3486 178.683 54.2767 178.51 54.2766 178.329V160.242C54.2767 160.061 54.3486 159.888 54.4764 159.76C54.6042 159.632 54.7775 159.56 54.9582 159.56H118.172Z" fill="#141414"/>
<path d="M464.444 193.086C464.444 193.086 469.663 255.895 470.784 269.354C471.552 277.791 473.437 286.088 476.387 294.028C477.728 296.838 478.49 299.89 478.628 303.001V360.201C478.628 360.201 483.111 360.201 481.99 364.687C480.869 369.173 479.749 377.025 479.749 377.025H462.94C462.94 377.025 464.06 373.66 460.699 372.538C457.337 371.417 460.699 362.444 460.699 362.444L442.769 295.15L415.874 239.071C415.874 239.071 400.186 289.542 396.824 295.15C396.824 295.15 384.497 357.958 382.256 363.566C380.015 369.173 378.894 369.174 380.015 371.417C381.135 373.66 381.135 375.903 380.015 377.024C378.894 378.146 357.603 377.024 357.603 377.024L363.206 297.393L373.291 202.06L424.839 186.358L464.444 193.086Z" fill="#2F2E41"/>
<path d="M467.422 368.052C467.422 368.052 473.025 347.864 481.989 363.566C490.954 379.268 490.954 384.875 490.954 384.875C490.954 384.875 505.522 406.185 485.351 403.942C465.18 401.699 469.663 391.605 469.663 391.605C469.663 391.605 461.819 387.119 461.819 383.754C461.819 380.389 467.422 368.052 467.422 368.052Z" fill="#2F2E41"/>
<path d="M376.653 365.809C376.653 365.809 371.05 345.621 362.085 361.323C353.12 377.025 353.12 382.632 353.12 382.632C353.12 382.632 338.552 403.942 358.723 401.699C378.894 399.456 374.412 389.362 374.412 389.362C374.412 389.362 382.256 384.876 382.256 381.511C382.256 378.146 376.653 365.809 376.653 365.809Z" fill="#2F2E41"/>
<path d="M429.32 41.6749C429.32 41.6749 427.079 56.2553 433.803 59.62C440.526 62.9848 419.235 75.322 413.632 75.322C408.029 75.322 397.943 64.1063 397.943 64.1063C397.943 64.1063 403.546 47.2828 402.426 43.9181L429.32 41.6749Z" fill="#FFB9B9"/>
<path d="M416.995 52.8907C403.998 52.8907 393.462 42.3456 393.462 29.3377C393.462 16.3298 403.998 5.78473 416.995 5.78473C429.991 5.78473 440.527 16.3298 440.527 29.3377C440.527 42.3456 429.991 52.8907 416.995 52.8907Z" fill="#FFB9B9"/>
<path d="M371.05 77.5652L399.064 60.5777C399.064 60.5777 415.003 78.6868 432.248 58.4985L461.819 66.3495L457.336 142.616C457.336 142.616 464.06 172.899 461.819 178.507C459.578 184.114 467.422 186.358 465.181 187.479C462.939 188.601 465.181 196.452 465.181 196.452C465.181 196.452 421.477 218.883 373.291 202.059L377.773 187.479C377.163 185.573 377.049 183.543 377.441 181.58C377.833 179.618 378.719 177.788 380.015 176.263C380.015 176.263 375.532 169.534 381.135 163.926C381.135 163.926 378.894 153.832 384.497 149.346L385.618 133.644L382.256 125.793L371.05 77.5652Z" fill="#CFCCE0"/>
<path d="M429.037 18.4014C429.037 18.4014 431.843 24.4782 420.621 22.0475C420.621 22.0475 416.412 24.4782 416.412 20.8321C416.412 20.8321 410.801 26.9089 409.398 23.2628C407.996 19.6167 405.19 24.4782 405.19 24.4782L402.384 18.4014L399.579 22.0474H389.759C389.759 22.0474 386.954 -2.25987 420.621 0.170868C454.288 2.6016 437.725 41.1142 437.725 41.1142C437.725 41.1142 437.454 34.2011 434.649 37.8472C431.843 41.4933 429.037 18.4014 429.037 18.4014Z" fill="#2F2E41"/>
<path d="M360.964 122.428L359.843 145.981C359.843 145.981 355.361 189.722 364.326 208.789V218.883C364.326 218.883 366.567 244.679 377.773 243.558C388.979 242.436 374.411 206.546 374.411 206.546L376.652 157.197L378.893 129.157L360.964 122.428Z" fill="#FFB9B9"/>
<path d="M383.375 78.6868L372.197 76.869C364.144 84.6127 358.659 94.6423 356.481 105.604C353.119 123.55 351.998 126.914 351.998 126.914L378.893 133.644L393.461 105.604L383.375 78.6868Z" fill="#CFCCE0"/>
<path d="M430.298 85.3312C430.825 85.3317 431.331 85.5417 431.704 85.915C432.077 86.2883 432.287 86.7944 432.287 87.3223V239.447C432.287 239.975 432.077 240.481 431.704 240.854C431.331 241.227 430.825 241.437 430.298 241.438H83.3382C82.8107 241.437 82.3049 241.227 81.9319 240.854C81.559 240.481 81.3492 239.975 81.3487 239.447V87.3223C81.3493 86.7944 81.559 86.2883 81.932 85.915C82.305 85.5417 82.8107 85.3317 83.3382 85.3312H430.298Z" fill="#FFFCC0"/>
<path d="M130.29 115.343H383.348C383.98 115.342 384.586 115.09 385.033 114.642C385.48 114.194 385.73 113.587 385.73 112.954C385.73 112.321 385.48 111.714 385.033 111.266C384.586 110.818 383.98 110.566 383.348 110.564H130.29C129.657 110.564 129.05 110.816 128.602 111.264C128.155 111.712 127.903 112.32 127.903 112.954C127.903 113.587 128.155 114.195 128.602 114.643C129.05 115.091 129.657 115.343 130.29 115.343V115.343Z" fill="#141414"/>
<path d="M130.29 134.458H383.348C383.98 134.457 384.586 134.205 385.033 133.757C385.48 133.309 385.73 132.702 385.73 132.069C385.73 131.436 385.48 130.829 385.033 130.381C384.586 129.933 383.98 129.681 383.348 129.68H130.29C129.657 129.68 129.05 129.931 128.602 130.379C128.155 130.827 127.903 131.435 127.903 132.069C127.903 132.703 128.155 133.31 128.602 133.759C129.05 134.207 129.657 134.458 130.29 134.458Z" fill="#141414"/>
<path d="M130.29 153.573H383.348C383.98 153.572 384.586 153.32 385.033 152.872C385.48 152.424 385.73 151.817 385.73 151.184C385.73 150.551 385.48 149.944 385.033 149.496C384.586 149.048 383.98 148.796 383.348 148.795H130.29C129.977 148.794 129.666 148.855 129.375 148.975C129.085 149.095 128.821 149.271 128.599 149.493C128.377 149.715 128.201 149.978 128.08 150.269C127.96 150.559 127.898 150.87 127.898 151.184C127.898 151.498 127.96 151.809 128.08 152.1C128.201 152.39 128.377 152.653 128.599 152.875C128.821 153.097 129.085 153.273 129.375 153.393C129.666 153.513 129.977 153.574 130.29 153.573V153.573Z" fill="#141414"/>
<path d="M130.29 172.544H383.348C383.98 172.543 384.586 172.29 385.033 171.842C385.48 171.394 385.73 170.787 385.73 170.154C385.73 169.522 385.48 168.915 385.033 168.467C384.586 168.019 383.98 167.766 383.348 167.765H130.29C129.977 167.764 129.666 167.826 129.375 167.946C129.085 168.065 128.821 168.241 128.599 168.463C128.377 168.685 128.201 168.949 128.08 169.239C127.96 169.529 127.898 169.84 127.898 170.154C127.898 170.469 127.96 170.78 128.08 171.07C128.201 171.36 128.377 171.624 128.599 171.846C128.821 172.068 129.085 172.244 129.375 172.363C129.666 172.483 129.977 172.544 130.29 172.544V172.544Z" fill="#141414"/>
<path d="M130.29 191.659H383.347C383.98 191.659 384.587 191.407 385.035 190.959C385.483 190.511 385.734 189.903 385.734 189.27C385.734 188.636 385.483 188.028 385.035 187.58C384.587 187.132 383.98 186.88 383.347 186.88H130.29C129.656 186.88 129.049 187.132 128.601 187.58C128.154 188.028 127.902 188.636 127.902 189.27C127.902 189.903 128.154 190.511 128.601 190.959C129.049 191.407 129.656 191.659 130.29 191.659V191.659Z" fill="#141414"/>
<path d="M194.523 207.565C194.704 207.565 194.877 207.637 195.005 207.765C195.133 207.893 195.205 208.066 195.205 208.247V226.334C195.205 226.515 195.133 226.688 195.005 226.816C194.877 226.944 194.704 227.016 194.523 227.016H131.31C131.129 227.016 130.956 226.944 130.828 226.816C130.7 226.688 130.628 226.515 130.628 226.334V208.247C130.628 208.066 130.7 207.893 130.828 207.765C130.956 207.637 131.129 207.565 131.31 207.565H194.523Z" fill="#141414"/>
<path d="M478.628 108.969C478.628 108.969 488.714 151.589 476.387 151.589C464.06 151.589 434.924 103.361 434.924 103.361C434.924 103.361 404.668 87.6593 416.995 82.0515C429.321 76.4436 445.01 91.024 445.01 91.024L463.112 116.178L464.06 103.361L478.628 108.969Z" fill="#FFB9B9"/>
<path d="M455.094 73.0789L461.818 66.3495C461.818 66.3495 475.265 74.2005 476.386 82.0515C477.506 89.9025 483.109 114.577 483.109 114.577L462.378 116.259L455.654 106.165L455.094 73.0789Z" fill="#CFCCE0"/>
</g>
<defs>
<filter id="filter0_d" x="-4" y="0" width="530" height="448" filterUnits="userSpaceOnUse" color-interpolation-filters="sRGB">
<feFlood flood-opacity="0" result="BackgroundImageFix"/>
<feColorMatrix in="SourceAlpha" type="matrix" values="0 0 0 0 0 0 0 0 0 0 0 0 0 0 0 0 0 0 127 0"/>
<feOffset dy="4"/>
<feGaussianBlur stdDeviation="2"/>
<feColorMatrix type="matrix" values="0 0 0 0 0 0 0 0 0 0 0 0 0 0 0 0 0 0 0.25 0"/>
<feBlend mode="normal" in2="BackgroundImageFix" result="effect1_dropShadow"/>
<feBlend mode="normal" in="SourceGraphic" in2="effect1_dropShadow" result="shape"/>
</filter>
<clipPath id="clip0">
<rect width="522" height="440" fill="white" transform="matrix(-1 0 0 1 522 0)"/>
</clipPath>
</defs>
</svg>
